<svg width="200" height="32" viewBox="0 0 200 32" fill="none" xmlns="http://www.w3.org/2000/svg">
<path fill-rule="evenodd" clip-rule="evenodd" d="M37.8 16.3482L37.8015 16.1879L37.8047 16.0275L37.8095 15.8671L37.816 15.7067L37.8241 15.5463L37.8339 15.3859L37.8453 15.2256L37.8584 15.0653L37.8731 14.905L37.8895 14.7448L37.9075 14.5848L37.9272 14.4248L37.9485 14.265L37.9714 14.1053L37.996 13.9458L38.0223 13.7865L38.0502 13.6273L38.0797 13.4684L38.1109 13.3097L38.1437 13.1512L38.1782 12.993L38.2142 12.835L38.252 12.6774L38.2913 12.5201L38.3323 12.3631L38.3749 12.2064L38.4191 12.0501L38.465 11.8942L38.5124 11.7386L38.5615 11.5835L38.6122 11.4288L38.6645 11.2745L38.7184 11.1206L38.7739 10.9673L38.831 10.8144L38.8896 10.662L38.9499 10.5102L39.0117 10.3588L39.0752 10.2081L39.1401 10.0578L39.2067 9.90816L39.2748 9.75912L39.3445 9.61072L39.4157 9.46288L39.4884 9.31568L39.5627 9.1692L39.6386 9.02336L39.7159 8.87816L39.7948 8.73376L39.8752 8.59L39.957 8.44696L40.0404 8.30472L40.1253 8.1632L40.2116 8.02248L40.2995 7.88256L40.3888 7.74344L40.4795 7.6052L40.5717 7.46768L40.6654 7.33112L40.7605 7.19536L40.857 7.06048L40.955 6.92656L41.0543 6.79344L41.1551 6.66136L41.2572 6.53016L41.3607 6.39987L41.4656 6.27059L41.5719 6.14229L41.6795 6.01498L41.7885 5.88866L41.8988 5.76338L42.0105 5.63913L42.1234 5.51592L42.2377 5.39378L42.3532 5.2727L42.4701 5.15272L42.5882 5.03383L42.7076 4.91606L42.8282 4.79941L42.9501 4.6839L43.0732 4.56954L43.1975 4.45634L43.323 4.34433L43.4497 4.2335L43.5777 4.12386L43.7067 4.01544L43.837 3.90825L43.9684 3.80229L44.1009 3.69758L44.2345 3.59412L44.3693 3.49194L44.5052 3.39104L44.6421 3.29144L44.7801 3.19314L44.9192 3.09616L45.0593 3.0005L45.2005 2.90618L45.3426 2.81321L45.4858 2.72159L45.6301 2.63135L45.7752 2.54249L45.9213 2.45501L46.0684 2.36894L46.2164 2.28427L46.3653 2.20102L46.5152 2.11921L46.6659 2.03882L46.8175 1.9599L46.97 1.88242L47.1233 1.80641L47.2775 1.73187L47.4325 1.65882L47.5883 1.58726L47.7449 1.5172L47.9023 1.44865L48.0605 1.38162L48.2193 1.31611L48.3789 1.25214L48.5393 1.1897L48.7003 1.12882L48.862 1.06948L49.0244 1.01172L49.1874 0.95552L49.3511 0.900896L49.5153 0.847864L49.6802 0.796416L49.8457 0.746568L50.0118 0.698328L50.1784 0.651696L50.3456 0.606672L50.5133 0.563272L50.6814 0.521504L50.8501 0.481376L51.0193 0.442872L51.1889 0.406024L51.3589 0.370816L51.5293 0.337264L51.7002 0.305376L51.8715 0.275144L52.0432 0.246584L52.2152 0.219696L52.3875 0.19448L52.5601 0.170952L52.7331 0.149104L52.9064 0.128944L53.0799 0.110464L53.2537 0.093696L53.4277 0.078616L53.6019 0.0652321L53.7763 0.0535601L54.7142 0L54.7677 4.51894L54.7984 4.51858L54.9279 4.5184L55.0574 4.51949L55.1869 4.52185L55.3166 4.52549L55.4462 4.5304L55.5759 4.53658L55.7056 4.54404L55.8353 4.55278L55.9649 4.56279L56.0945 4.57409L56.2241 4.58666L56.3536 4.60052L56.4829 4.61565L56.6123 4.63206L56.7415 4.64974L56.8706 4.6687L56.9996 4.68895L57.1285 4.71047L57.2571 4.73326L57.3857 4.75734L57.514 4.78268L57.6421 4.8093L57.7701 4.83719L57.8977 4.86635L58.0252 4.89678L58.1525 4.92847L58.2794 4.96144L58.4061 4.99566L58.5325 5.03115L58.6586 5.0679L58.7844 5.1059L58.9098 5.14515L59.0349 5.18566L59.1597 5.22742L59.2841 5.27042L59.4081 5.31467L59.5318 5.36015L59.655 5.40688L59.7778 5.45483L59.9002 5.50402L60.0221 5.55444L60.1436 5.60607L60.2646 5.65893L60.3852 5.713L60.5052 5.76828L60.6247 5.82476L60.7437 5.88245L60.8622 5.94134L60.9801 6.00142L61.0975 6.06268L61.2143 6.12513L61.3305 6.18876L61.4461 6.25356L61.5612 6.31953L61.6756 6.38666L61.7893 6.45496L61.9025 6.5244L62.0149 6.59496L62.1267 6.66672L62.2378 6.73952L62.3482 6.81352L62.458 6.88864L62.5669 6.9648L62.6753 7.04216L62.7828 7.12056L62.8895 7.20008L62.9956 7.28072L63.1008 7.3624L63.2053 7.4452L63.3089 7.52896L63.4117 7.61384L63.5137 7.69984L63.6149 7.7868L63.7153 7.8748L63.8149 7.96384L63.9134 8.05392L64.0112 8.14504L64.1081 8.23712L64.2041 8.33016L64.2991 8.42424L64.3933 8.51928L64.4865 8.61536L64.5788 8.71232L64.6701 8.81024L64.7605 8.90912L64.8498 9.00896L64.9382 9.10968L65.0257 9.21136L65.1121 9.31392L65.1975 9.41736L65.2819 9.52176L65.3653 9.62696L65.4476 9.73304L65.5289 9.84L65.6091 9.94784L65.6882 10.0565L65.7663 10.166L65.8433 10.2763L65.9192 10.3874L65.994 10.4993L66.0677 10.612L66.1402 10.7255L66.2116 10.8398L66.2819 10.9547L66.351 11.0705L66.419 11.187L66.4858 11.3042L66.5515 11.4221L66.616 11.5407L66.6793 11.66L66.7413 11.78L66.8022 11.9006L66.8619 12.0219L66.9204 12.1439L66.9777 12.2665L67.0337 12.3897L67.0885 12.5135L67.142 12.6379L67.1942 12.763L67.2453 12.8885L67.295 13.0146L67.3435 13.1413L67.3907 13.2686L67.4366 13.3962L67.4813 13.5246L67.5246 13.6533L67.5667 13.7826L67.6074 13.9122L67.6469 14.0424L67.6849 14.173L67.7217 14.3041L67.7572 14.4356L67.7913 14.5675L67.8241 14.6998L67.8556 14.8325L67.8857 14.9655L67.9144 15.099L67.9418 15.2326L67.9678 15.3668L67.9925 15.5012L68.0158 15.6359L68.0377 15.7709L68.0583 15.9062L68.0775 16.0418L68.0953 16.1775L68.1117 16.3136L68.1267 16.4498L68.1403 16.5863L68.1525 16.723L68.1634 16.8598L68.1729 16.9969L68.1809 17.1341L68.1875 17.2714L68.1928 17.4089L68.1965 17.5464L68.199 17.6841L68.2 17.8218L68.1996 17.9597L68.1977 18.0976L68.1945 18.2356L68.1898 18.3735L68.1837 18.5115L68.1763 18.6495L68.1673 18.7875L68.157 18.9255L68.1453 19.0634L68.1321 19.2014L68.1175 19.3392L68.1014 19.4769L68.084 19.6146L68.0652 19.7521L68.0449 19.8895L68.0232 20.0268L68.0001 20.1639L67.9755 20.3009L67.9496 20.4377L67.9222 20.5743L67.8934 20.7107L67.8632 20.8469L67.8316 20.9829L67.7986 21.1186L67.7641 21.254L67.7283 21.3891L67.6911 21.524L67.6525 21.6586L67.6125 21.7928L67.571 21.9268L67.5281 22.0603L67.484 22.1936L67.4384 22.3264L67.3913 22.4589L67.343 22.591L67.2933 22.7226L67.2421 22.8538L67.1897 22.9846L67.1358 23.1149L67.0806 23.2447L67.0241 23.3742L66.9661 23.503L66.9069 23.6314L66.8462 23.7592L66.7843 23.8865L66.7209 24.0133L66.6564 24.1394L66.5904 24.2651L66.5232 24.3901L66.4545 24.5146L66.3847 24.6383L66.3135 24.7615L66.241 24.8841L66.1673 25.0059L66.0922 25.1272L66.0158 25.2477L65.9382 25.3675L65.8594 25.4866L65.7793 25.605L65.6979 25.7227L65.6153 25.8397L65.5314 25.9558L65.4463 26.0713L65.36 26.1859L65.2725 26.2998L65.1837 26.4127L65.0938 26.525L65.0027 26.6363L64.9104 26.7468L64.8169 26.8565L64.7222 26.9653L64.6264 27.0732L64.5294 27.1802L64.4313 27.2864L64.3321 27.3916L64.2317 27.4959L64.1303 27.5992L64.0277 27.7016L63.924 27.803L63.8193 27.9035L63.7134 28.003L63.6066 28.1015L63.4985 28.199L63.3895 28.2954L63.2795 28.3909L63.1684 28.4854L63.0563 28.5787L62.9432 28.671L62.8291 28.7622L62.714 28.8524L62.5979 28.9414L62.4809 29.0294L62.3629 29.1162L62.244 29.202L62.1241 29.2866L62.0033 29.3701L61.8816 29.4524L61.759 29.5335L61.6355 29.6135L61.5112 29.6924L61.386 29.77L61.2599 29.8465L61.1329 29.9217L61.0052 29.9958L60.8767 30.0686L60.7473 30.1401L60.6172 30.2105L60.4862 30.2795L60.3545 30.3474L60.2221 30.414L60.0889 30.4793L59.9549 30.5433L59.8203 30.6061L59.6849 30.6675L59.5489 30.7277L59.4122 30.7865L59.2749 30.844L59.1369 30.9002L58.9982 30.9551L58.8589 31.0086L58.719 31.0609L58.5785 31.1117L58.4374 31.1612L58.2958 31.2093L58.1537 31.2561L58.0109 31.3014L57.8676 31.3454L57.7238 31.3881L57.5796 31.4293L57.4348 31.4691L57.2896 31.5076L57.1438 31.5446L56.9977 31.5802L56.8512 31.6144L56.7041 31.6471L56.5568 31.6785L56.409 31.7084L56.2609 31.7369L56.1124 31.7639L55.9636 31.7894L55.8144 31.8136L55.6649 31.8363L55.5151 31.8575L55.3651 31.8773L55.2148 31.8956L55.0641 31.9124L54.9133 31.9278L54.7623 31.9417L54.6111 31.9541L54.4597 31.965L54.3081 31.9745L54.1562 31.9825L54.0043 31.989L53.8523 31.9939L53.7001 31.9974L53.5478 31.9994L53.3954 32L53.243 31.999L53.0905 31.9966L52.938 31.9926L52.7854 31.9871L52.6329 31.9802L52.4803 31.9718L52.3278 31.9618L52.1753 31.9503L52.0229 31.9374L51.8705 31.9229L51.7181 31.907L51.566 31.8895L51.4139 31.8706L51.2619 31.8501L51.1101 31.8281L50.9585 31.8046L50.807 31.7797L50.6557 31.7533L50.5046 31.7253L50.3538 31.6958L50.2032 31.665L50.0529 31.6325L49.9027 31.5986L49.7529 31.5632L49.6034 31.5263L49.4542 31.4879L49.3053 31.4481L49.1569 31.4068L49.0087 31.364L48.8609 31.3198L48.7135 31.274L48.5665 31.2268L48.42 31.1782L48.2738 31.128L48.1281 31.0764L47.9829 31.0234L47.8382 30.969L47.694 30.913L47.5503 30.8557L47.4071 30.7969L47.2645 30.7366L47.1224 30.675L46.9809 30.612L46.8399 30.5475L46.6996 30.4816L46.5599 30.4143L46.4209 30.3456L46.2824 30.2755L46.1446 30.2041L46.0076 30.1312L45.8711 30.057L45.7354 29.9814L45.6005 29.9045L45.4662 29.8262L45.3327 29.7465L45.2 29.6655L45.068 29.5831L44.9368 29.4995L44.8065 29.4145L44.6769 29.3282L44.5481 29.2406L44.4203 29.1517L44.2933 29.0615L44.1671 28.97L44.0419 28.8773L43.9175 28.7832L43.794 28.6879L43.6715 28.5914L43.5499 28.4936L43.4293 28.3946L43.3096 28.2944L43.1909 28.193L43.0732 28.0903L42.9565 27.9864L42.8408 27.8814L42.7262 27.7752L42.6126 27.6678L42.5 27.5593L42.3885 27.4495L42.2781 27.3387L42.1688 27.2268L42.0606 27.1137L41.9535 26.9995L41.8475 26.8842L41.7427 26.7678L41.639 26.6504L41.5365 26.5319L41.4351 26.4123L41.3349 26.2918L41.236 26.1701L41.1382 26.0474L41.0417 25.9238L40.9463 25.7991L40.8523 25.6734L40.7594 25.5468L40.6679 25.4192L40.5775 25.2906L40.4885 25.1612L40.4008 25.0308L40.3144 24.8994L40.2293 24.7673L40.1455 24.6342L40.063 24.5002L39.9819 24.3654L39.9021 24.2296L39.8237 24.0931L39.7467 23.9558L39.671 23.8176L39.5967 23.6786L39.5238 23.5388L39.4523 23.3983L39.3822 23.257L39.3136 23.115L39.2464 22.9722L39.1806 22.8288L39.1162 22.6846L39.0533 22.5398L38.9919 22.3942L38.9319 22.248L38.8735 22.1011L38.8164 21.9536L38.7609 21.8055L38.7069 21.6568L38.6544 21.5075L38.6034 21.3577L38.5539 21.2072L38.5059 21.0562L38.4595 20.9047L38.4146 20.7527L38.3712 20.6002L38.3294 20.4471L38.2891 20.2937L38.2504 20.1398L38.2132 19.9854L38.1777 19.8306L38.1436 19.6753L38.1112 19.5197L38.0804 19.3637L38.0511 19.2074L38.0234 19.0506L37.9974 18.8936L37.9729 18.7362L37.95 18.5786L37.9287 18.4206L37.9091 18.2623L37.8911 18.1038L37.8746 17.9451L37.8598 17.7862L37.8467 17.627L37.8351 17.4677L37.8252 17.3082L37.8169 17.1485L37.8102 16.9886L37.8052 16.8287L37.8018 16.6686L37.8001 16.5085L37.8 16.3482ZM53.3025 4.61359L53.266 1.53343L53.2313 1.53678L53.0723 1.5537L52.9137 1.57217L52.7551 1.5922L52.5972 1.61372L52.4394 1.63681L52.2818 1.66144L52.1247 1.68758L51.9677 1.71529L51.8116 1.74443L51.6552 1.77521L51.4999 1.80737L51.3444 1.84115L51.1897 1.87637L51.0351 1.91315L50.8813 1.95134L50.7278 1.99107L50.5748 2.03228L50.4222 2.07498L50.2704 2.1191L50.1188 2.16475L49.968 2.21182L49.8176 2.26038L49.668 2.31028L49.5186 2.36176L49.3701 2.41462L49.2222 2.46887L49.0748 2.52461L48.9281 2.5817L48.7823 2.64018L48.6369 2.70015L48.4921 2.76149L48.3481 2.82422L48.2049 2.88828L48.0625 2.95373L47.9208 3.0205L47.7796 3.08874L47.6394 3.15822L47.5 3.22906L47.3613 3.30124L47.2235 3.37475L47.0866 3.44952L46.9503 3.52567L46.8149 3.60314L46.6806 3.68172L46.5468 3.76183L46.4142 3.84301L46.2825 3.92545L46.1515 4.00924L46.0215 4.09426L45.8925 4.18051L45.7646 4.26778L45.6373 4.3566L45.5112 4.44637L45.3861 4.53738L45.2618 4.62963L45.1387 4.72298L45.0167 4.81746L44.8954 4.91326L44.7755 5.00997L44.6565 5.10795L44.5385 5.207L44.4217 5.3072L44.306 5.40836L44.1912 5.5108L44.0777 5.61415L43.9651 5.7187L43.8539 5.82412L43.7437 5.93069L43.6347 6.03822L43.5268 6.14681L43.42 6.25652L43.3145 6.36698L43.2103 6.4784L43.107 6.59112L43.0051 6.70456L42.9045 6.8188L42.8048 6.93424L42.7067 7.0504L42.6096 7.1676L42.5138 7.2856L42.4193 7.40456L42.3261 7.52432L42.2341 7.64488L42.1434 7.76632L42.054 7.88872L41.966 8.01168L41.8791 8.13568L41.7937 8.26032L41.7095 8.38576L41.6267 8.512L41.5452 8.63896L41.4651 8.76656L41.3863 8.89496L41.3089 9.024L41.2328 9.15384L41.158 9.2844L41.0848 9.41544L41.0128 9.5472L40.9422 9.67968L40.8731 9.81272L40.8053 9.9464L40.7389 10.0806L40.674 10.2154L40.6105 10.3507L40.5483 10.4867L40.4877 10.6231L40.4284 10.7602L40.3705 10.8977L40.3142 11.0356L40.2592 11.1741L40.2057 11.313L40.1537 11.4524L40.1031 11.5922L40.054 11.7324L40.0063 11.8731L39.9601 12.0142L39.9153 12.1556L39.8721 12.2973L39.8303 12.4395L39.79 12.5819L39.7512 12.7247L39.7138 12.8678L39.6779 13.0112L39.6436 13.1548L39.6107 13.2987L39.5793 13.4429L39.5494 13.5873L39.521 13.7318L39.4941 13.8766L39.4687 14.0216L39.4448 14.1668L39.4224 14.3121L39.4015 14.4575L39.3821 14.6031L39.3641 14.7488L39.3477 14.8946L39.3328 15.0405L39.3194 15.1864L39.3075 15.3323L39.2971 15.4784L39.2882 15.6245L39.2808 15.7705L39.2749 15.9166L39.2705 16.0626L39.2676 16.2086L39.2662 16.3545L39.2663 16.5004L39.2679 16.6462L39.271 16.7919L39.2756 16.9375L39.2816 17.083L39.2892 17.2283L39.2982 17.3734L39.3087 17.5185L39.3207 17.6633L39.3342 17.8079L39.3491 17.9524L39.3655 18.0966L39.3834 18.2406L39.4027 18.3842L39.4235 18.5277L39.4458 18.6709L39.4695 18.8137L39.4947 18.9562L39.5213 19.0985L39.5494 19.2403L39.5789 19.3819L39.6098 19.523L39.6422 19.6638L39.6759 19.8042L39.7111 19.9442L39.7478 20.0838L39.7858 20.2229L39.8252 20.3616L39.8661 20.4998L39.9083 20.6376L39.9519 20.7749L39.9969 20.9116L40.0433 21.0478L40.091 21.1835L40.1401 21.3187L40.1905 21.4533L40.2424 21.5874L40.2955 21.7208L40.35 21.8537L40.4058 21.9859L40.463 22.1175L40.5215 22.2486L40.5812 22.379L40.6423 22.5086L40.7047 22.6377L40.7683 22.766L40.8333 22.8937L40.8995 23.0206L40.967 23.1469L41.0357 23.2724L41.1057 23.3971L41.1769 23.5211L41.2493 23.6444L41.323 23.7668L41.3979 23.8885L41.474 24.0094L41.5513 24.1294L41.6297 24.2486L41.7094 24.367L41.7902 24.4846L41.8722 24.6013L41.9553 24.7171L42.0396 24.8321L42.125 24.9462L42.2115 25.0593L42.2991 25.1715L42.3879 25.2828L42.4777 25.3932L42.5686 25.5027L42.6605 25.6112L42.7536 25.7187L42.8477 25.8253L42.9428 25.9309L43.0389 26.0354L43.1361 26.139L43.2343 26.2416L43.3334 26.3432L43.4336 26.4438L43.5347 26.5432L43.6368 26.6417L43.7399 26.739L43.8438 26.8354L43.9488 26.9307L44.0546 27.0249L44.1613 27.1179L44.2689 27.2099L44.3775 27.3008L44.4868 27.3906L44.5971 27.4793L44.7081 27.5667L44.8201 27.6531L44.9328 27.7384L45.0464 27.8225L45.1607 27.9054L45.2758 27.9871L45.3917 28.0677L45.5084 28.1471L45.6257 28.2253L45.744 28.3023L45.8628 28.3782L45.9824 28.4527L46.1027 28.5262L46.2236 28.5983L46.3453 28.6693L46.4675 28.739L46.5905 28.8074L46.714 28.8746L46.8382 28.9406L46.9629 29.0054L47.0883 29.0689L47.2143 29.131L47.3409 29.192L47.4679 29.2517L47.5955 29.3101L47.7236 29.3671L47.8523 29.423L47.9814 29.4774L48.1111 29.5307L48.2412 29.5826L48.3717 29.6332L48.5028 29.6826L48.6341 29.7306L48.766 29.7772L48.8983 29.8226L49.0309 29.8666L49.164 29.9094L49.2973 29.9507L49.4311 29.9908L49.5651 30.0295L49.6995 30.0669L49.8342 30.103L49.9692 30.1377L50.1045 30.171L50.2399 30.203L50.3757 30.2338L50.5117 30.263L50.6479 30.291L50.7844 30.3177L50.921 30.343L51.0578 30.3669L51.1948 30.3894L51.3319 30.4106L51.4692 30.4305L51.6066 30.449L51.7441 30.4662L51.8817 30.4819L52.0193 30.4963L52.1571 30.5094L52.2949 30.5211L52.4328 30.5315L52.5706 30.5405L52.7085 30.5482L52.8464 30.5544L52.9842 30.5594L53.1221 30.563L53.2599 30.5651L53.3976 30.566L53.5353 30.5655L53.6729 30.5637L53.8103 30.5606L53.9477 30.556L54.0849 30.5502L54.2221 30.543L54.3589 30.5344L54.4957 30.5246L54.6324 30.5134L54.7688 30.5008L54.9049 30.4869L55.0409 30.4717L55.1766 30.4552L55.3121 30.4374L55.4473 30.4182L55.5823 30.3977L55.7169 30.3759L55.8513 30.3528L55.9854 30.3284L56.1191 30.3027L56.2525 30.2758L56.3855 30.2474L56.5181 30.2179L56.6504 30.187L56.7823 30.1549L56.9137 30.1215L57.0448 30.0868L57.1753 30.0509L57.3056 30.0137L57.4353 29.9752L57.5645 29.9355L57.6933 29.8946L57.8216 29.8524L57.9493 29.809L58.0765 29.7644L58.2033 29.7185L58.3294 29.6714L58.455 29.6231L58.5801 29.5737L58.7045 29.523L58.8283 29.4711L58.9516 29.4181L59.0742 29.3638L59.1961 29.3085L59.3176 29.2519L59.4383 29.1942L59.5583 29.1354L59.6777 29.0753L59.7964 29.0142L59.9144 28.9519L60.0317 28.8885L60.1482 28.824L60.2641 28.7584L60.3791 28.6918L60.4936 28.6239L60.607 28.5551L60.72 28.4851L60.8319 28.4142L60.9431 28.3421L61.0536 28.269L61.1633 28.1947L61.2719 28.1197L61.3798 28.0434L61.4869 27.9662L61.5932 27.8881L61.6986 27.8088L61.803 27.7287L61.9068 27.6474L62.0094 27.5654L62.1112 27.4823L62.2122 27.3982L62.3122 27.3132L62.4112 27.2274L62.5093 27.1405L62.6065 27.0528L62.7027 26.9642L62.798 26.8746L62.8921 26.7843L62.9855 26.693L63.0778 26.6008L63.1691 26.5078L63.2594 26.414L63.3486 26.3194L63.4368 26.2241L63.5241 26.1276L63.6102 26.0306L63.6954 25.9327L63.7794 25.8342L63.8625 25.7347L63.9444 25.6346L64.0252 25.5338L64.105 25.4321L64.1837 25.3298L64.2613 25.2267L64.3377 25.123L64.4132 25.0186L64.4876 24.9134L64.5605 24.8078L64.6326 24.7013L64.7034 24.5943L64.7732 24.4866L64.8419 24.3782L64.9093 24.2694L64.9755 24.1599L65.0407 24.0496L65.1045 23.9391L65.1673 23.8278L65.229 23.716L65.2893 23.6038L65.3486 23.4909L65.4067 23.3774L65.4634 23.2639L65.5191 23.1494L65.5736 23.0346L65.6268 22.9194L65.6788 22.8037L65.7296 22.6875L65.7791 22.571L65.8275 22.4539L65.8746 22.3365L65.9205 22.219L65.9651 22.1006L66.0085 21.9822L66.0507 21.8632L66.0917 21.744L66.1313 21.6244L66.1697 21.5048L66.2069 21.3843L66.2428 21.264L66.2774 21.1433L66.3109 21.0224L66.343 20.901L66.3738 20.7797L66.4035 20.6579L66.4318 20.5359L66.4589 20.4138L66.4848 20.2914L66.5093 20.1691L66.5325 20.0462L66.5545 19.9237L66.5753 19.8006L66.5947 19.6775L66.6129 19.5544L66.6298 19.431L66.6454 19.3078L66.6598 19.1841L66.6729 19.0608L66.6847 18.9371L66.6952 18.8137L66.7045 18.6898L66.7125 18.5665L66.7192 18.4427L66.7246 18.3189L66.7288 18.1954L66.7317 18.0721L66.7333 17.9483L66.7337 17.8248L66.7329 17.7014L66.7307 17.5782L66.7273 17.4549L66.7225 17.3321L66.7166 17.2088L66.7094 17.0861L66.7009 16.9634L66.6913 16.841L66.6803 16.7185L66.6681 16.5965L66.6547 16.4744L66.64 16.3527L66.6241 16.2311L66.6069 16.1099L66.5885 15.9886L66.5689 15.8679L66.5481 15.7476L66.526 15.6272L66.5026 15.5072L66.4781 15.3877L66.4524 15.2681L66.4256 15.1494L66.3973 15.0305L66.3681 14.9124L66.3375 14.7942L66.3058 14.6768L66.2729 14.5596L66.2389 14.4426L66.2037 14.3264L66.1673 14.2106L66.1296 14.0948L66.0909 13.9799L66.0509 13.8651L66.01 13.751L65.9677 13.6372L65.9245 13.5242L65.8799 13.4113L65.8343 13.299L65.7877 13.1875L65.7399 13.0765L65.6908 12.9656L65.6409 12.8558L65.5897 12.746L65.5375 12.6373L65.4842 12.529L65.4297 12.421L65.3744 12.314L65.3178 12.2074L65.2601 12.1014L65.2017 11.9963L65.142 11.8915L65.0813 11.7876L65.0195 11.6842L64.9569 11.5818L64.893 11.4796L64.8284 11.3784L64.7625 11.2777L64.6958 11.1778L64.6282 11.0789L64.5594 10.9803L64.4897 10.8826L64.4192 10.7857L64.3476 10.6896L64.2751 10.5941L64.2017 10.4995L64.1273 10.4056L64.0521 10.3126L63.9759 10.2203L63.8988 10.1288L63.8208 10.0382L63.742 9.94832L63.6624 9.85936L63.5818 9.7712L63.5002 9.68376L63.4182 9.59752L63.3349 9.51176L63.2511 9.4272L63.1664 9.34328L63.0809 9.2604L62.9944 9.17816L62.9075 9.0972L62.8195 9.01688L62.7308 8.93752L62.6416 8.8592L62.5515 8.78176L62.4604 8.70504L62.3688 8.62944L62.2765 8.5548L62.1835 8.48112L62.0898 8.40832L61.9955 8.33672L61.9002 8.26568L61.8046 8.196L61.7082 8.1272L61.6111 8.05928L61.5136 7.99248L61.415 7.92648L61.3165 7.86184L61.2168 7.79792L61.1168 7.73512L61.016 7.67328L60.9148 7.61248L60.813 7.5528L60.7109 7.49424L60.6077 7.4364L60.5046 7.37992L60.4006 7.32432L60.2962 7.26984L60.1914 7.21648L60.086 7.16408L59.9801 7.11272L59.8739 7.06256L59.7671 7.01336L59.6601 6.96536L59.5525 6.91832L59.441 6.87096L59.3362 6.82768L59.2272 6.78384L59.1183 6.74136L59.0085 6.69968L58.8988 6.65936L58.7885 6.62L58.6781 6.58184L58.5671 6.54464L58.4561 6.50872L58.3445 6.47384L58.2328 6.44008L58.1209 6.40752L58.0086 6.37597L57.8959 6.3455L57.7833 6.31628L57.6705 6.28817L57.557 6.26109L57.4439 6.23526L57.3302 6.21046L57.2165 6.18686L57.1025 6.16433L56.9885 6.14298L56.8743 6.12274L56.7601 6.10368L56.6454 6.08568L56.531 6.06887L56.4164 6.05318L56.3016 6.03861L56.1868 6.02518L56.072 6.01291L55.9571 6.00176L55.8421 5.99174L55.7271 5.98286L55.612 5.9751L55.4972 5.96849L55.3823 5.96301L55.267 5.95865L55.1524 5.95543L55.0375 5.95334L54.9227 5.95238L54.8077 5.95254L54.7847 5.9528L54.8209 9.01056L54.8861 9.01024L54.9701 9.01072L55.054 9.012L55.138 9.01416L55.2221 9.01712L55.3061 9.02096L55.3902 9.0256L55.4744 9.03104L55.5585 9.03736L55.6427 9.04448L55.7269 9.05248L55.8109 9.06128L55.8951 9.07096L55.9792 9.08144L56.0632 9.09272L56.1472 9.10496L56.2311 9.11792L56.3149 9.13176L56.3988 9.14648L56.4825 9.162L56.5661 9.1784L56.6496 9.1956L56.733 9.2136L56.8163 9.23248L56.8994 9.25224L56.9825 9.2728L57.0653 9.29416L57.148 9.3164L57.2305 9.33944L57.3129 9.36336L57.3952 9.38808L57.4772 9.4136L57.5589 9.44L57.6405 9.4672L57.722 9.49528L57.8031 9.52416L57.8841 9.55384L57.9647 9.58432L58.0452 9.61568L58.1253 9.64784L58.2053 9.6808L58.2849 9.71464L58.3642 9.7492L58.4433 9.78464L58.522 9.8208L58.6004 9.85784L58.6785 9.89568L58.7563 9.93432L58.8337 9.97376L58.9109 10.014L58.9876 10.055L59.064 10.0968L59.14 10.1394L59.2156 10.1827L59.2909 10.2269L59.3657 10.2718L59.4401 10.3175L59.5141 10.364L59.5877 10.4113L59.6609 10.4593L59.7337 10.508L59.806 10.5575L59.8778 10.6078L59.9492 10.6588L60.0201 10.7106L60.0905 10.7631L60.1605 10.8163L60.2298 10.8703L60.2988 10.925L60.3672 10.9804L60.4351 11.0366L60.5025 11.0934L60.5693 11.151L60.6357 11.2092L60.7014 11.2682L60.7666 11.3278L60.8312 11.3882L60.8953 11.4492L60.9587 11.5109L61.0216 11.5733L61.0839 11.6363L61.1456 11.7001L61.2067 11.7644L61.2671 11.8294L61.3269 11.8951L61.3861 11.9614L61.4447 12.0283L61.5026 12.0959L61.5599 12.1641L61.6165 12.2329L61.6725 12.3023L61.7277 12.3723L61.7823 12.443L61.8362 12.5142L61.8894 12.586L61.9419 12.6583L61.9937 12.7313L62.0448 12.8048L62.0952 12.8789L62.1448 12.9535L62.1937 13.0286L62.2418 13.1044L62.2893 13.1806L62.336 13.2574L62.3819 13.3346L62.427 13.4125L62.4714 13.4907L62.515 13.5695L62.5578 13.6488L62.5999 13.7286L62.6412 13.8088L62.6816 13.8895L62.7213 13.9707L62.7601 14.0523L62.7981 14.1343L62.8353 14.2169L62.8717 14.2998L62.9073 14.3831L62.9421 14.4669L62.976 14.551L63.009 14.6356L63.0412 14.7205L63.0725 14.8058L63.103 14.8915L63.1327 14.9776L63.1615 15.064L63.1893 15.1508L63.2164 15.2378L63.2425 15.3253L63.2678 15.413L63.2922 15.5011L63.3157 15.5895L63.3383 15.6782L63.36 15.7671L63.3808 15.8563L63.4007 15.9458L63.4197 16.0356L63.4377 16.1256L63.4549 16.2158L63.4711 16.3064L63.4865 16.3971L63.5009 16.488L63.5143 16.5792L63.5269 16.6705L63.5385 16.762L63.5492 16.8538L63.5589 16.9457L63.5677 17.0377L63.5756 17.1299L63.5825 17.2222L63.5885 17.3147L63.5934 17.4073L63.5975 17.5L63.6006 17.5929L63.6028 17.6858L63.604 17.7788L63.6042 17.8719L63.6035 17.965L63.6018 18.0582L63.5992 18.1515L63.5956 18.2449L63.591 18.3382L63.5855 18.4315L63.579 18.525L63.5716 18.6183L63.5631 18.7117L63.5537 18.805L63.5433 18.8983L63.5321 18.9917L63.5197 19.0849L63.5065 19.1781L63.4922 19.2712L63.477 19.3642L63.4609 19.4572L63.4437 19.5501L63.4256 19.6429L63.4065 19.7355L63.3864 19.8281L63.3654 19.9205L63.3434 20.0127L63.3205 20.1048L63.2965 20.1968L63.2717 20.2886L63.2458 20.3802L63.219 20.4715L63.1913 20.5627L63.1625 20.6538L63.1328 20.7446L63.1021 20.835L63.0705 20.9254L63.0381 21.0154L63.0045 21.1052L62.9701 21.1947L62.9347 21.284L62.8984 21.373L62.8611 21.4617L62.8229 21.55L62.7837 21.6381L62.7437 21.7258L62.7026 21.8132L62.6607 21.9002L62.6178 21.987L62.574 22.0733L62.5293 22.1593L62.4837 22.2448L62.4371 22.33L62.3897 22.4148L62.3413 22.4992L62.2921 22.5831L62.2419 22.6667L62.1909 22.7498L62.1389 22.8325L62.0861 22.9146L62.0324 22.9964L61.9777 23.0776L61.9223 23.1584L61.866 23.2387L61.8088 23.3185L61.7507 23.3978L61.6918 23.4766L61.6321 23.5548L61.5714 23.6325L61.51 23.7096L61.4477 23.7862L61.3845 23.8622L61.3206 23.9378L61.2558 24.0126L61.1902 24.087L61.1238 24.1606L61.0566 24.2338L60.9886 24.3062L60.9199 24.3782L60.8503 24.4494L60.78 24.52L60.7088 24.5899L60.6369 24.6593L60.5642 24.7279L60.4909 24.7958L60.4167 24.8632L60.3417 24.9298L60.2661 24.9957L60.1897 25.061L60.1127 25.1254L60.0349 25.1893L59.9564 25.2523L59.8771 25.3146L59.7972 25.3762L59.7166 25.4371L59.6353 25.4972L59.5533 25.5566L59.4708 25.6152L59.3875 25.673L59.3036 25.73L59.2189 25.7862L59.1337 25.8417L59.0479 25.8963L58.9615 25.9502L58.8744 26.0031L58.7868 26.0554L58.6985 26.1067L58.6097 26.1572L58.5202 26.2069L58.4302 26.2558L58.3397 26.3038L58.2485 26.3509L58.1569 26.3971L58.0647 26.4425L57.972 26.487L57.8787 26.5306L57.7849 26.5734L57.6907 26.6152L57.596 26.6562L57.5007 26.6962L57.405 26.7353L57.3089 26.7735L57.2122 26.8108L57.1152 26.8472L57.0177 26.8826L56.9197 26.9171L56.8213 26.9506L56.7226 26.9833L56.6234 27.0149L56.5239 27.0456L56.424 27.0754L56.3237 27.1041L56.223 27.1319L56.122 27.1587L56.0206 27.1846L55.9189 27.2094L55.8169 27.2334L55.7145 27.2562L55.612 27.2782L55.509 27.299L55.4058 27.319L55.3024 27.3379L55.1986 27.3558L55.0946 27.3727L54.9905 27.3886L54.886 27.4034L54.7813 27.4173L54.6764 27.4302L54.5713 27.4419L54.4661 27.4527L54.3606 27.4625L54.255 27.4712L54.1493 27.4789L54.0433 27.4855L53.9373 27.4911L53.8311 27.4957L53.7248 27.4992L53.6184 27.5017L53.5119 27.5031L53.4053 27.5035L53.2986 27.5029L53.192 27.5011L53.0852 27.4984L52.9784 27.4946L52.8716 27.4897L52.7647 27.4838L52.6579 27.4768L52.551 27.4688L52.4442 27.4597L52.3374 27.4495L52.2306 27.4383L52.1239 27.4261L52.0173 27.4128L51.9106 27.3984L51.8041 27.383L51.6977 27.3665L51.5914 27.349L51.4852 27.3303L51.3791 27.3107L51.2732 27.29L51.1674 27.2682L51.0617 27.2454L50.9563 27.2215L50.851 27.1966L50.7459 27.1706L50.641 27.1435L50.5363 27.1154L50.4318 27.0863L50.3277 27.0562L50.2237 27.025L50.1199 26.9927L50.0165 26.9594L49.9133 26.925L49.8104 26.8897L49.7078 26.8533L49.6056 26.8158L49.5036 26.7774L49.402 26.7378L49.3007 26.6974L49.1997 26.6558L49.0992 26.6132L48.999 26.5697L48.8993 26.525L48.7998 26.4794L48.7009 26.4329L48.6023 26.3853L48.5041 26.3366L48.4064 26.287L48.3092 26.2365L48.2124 26.1849L48.1161 26.1323L48.0202 26.0788L47.9249 26.0242L47.83 25.9688L47.7357 25.9123L47.6418 25.8549L47.5485 25.7966L47.4558 25.7372L47.3637 25.677L47.2721 25.6157L47.181 25.5535L47.0905 25.4905L47.0007 25.4265L46.9114 25.3615L46.8228 25.2957L46.7347 25.2289L46.6473 25.1612L46.5606 25.0926L46.4745 25.0231L46.3891 24.9528L46.3043 24.8815L46.2202 24.8094L46.1369 24.7364L46.0541 24.6626L45.9721 24.5878L45.8909 24.5123L45.8104 24.4359L45.7305 24.3586L45.6515 24.2806L45.5733 24.2017L45.4957 24.1219L45.4189 24.0414L45.3429 23.9601L45.2678 23.878L45.1934 23.795L45.1198 23.7114L45.0471 23.6269L44.9751 23.5417L44.9041 23.4557L44.8337 23.3689L44.7644 23.2814L44.6958 23.1932L44.6281 23.1042L44.5613 23.0146L44.4953 22.9242L44.4303 22.8331L44.3662 22.7414L44.3029 22.6489L44.2406 22.5558L44.1792 22.462L44.1188 22.3675L44.0592 22.2724L44.0006 22.1766L43.943 22.0802L43.8863 21.9833L43.8306 21.8856L43.7758 21.7874L43.722 21.6886L43.6692 21.5892L43.6174 21.4892L43.5666 21.3886L43.5168 21.2875L43.468 21.1858L43.4203 21.0837L43.3735 20.9809L43.3278 20.8777L43.2831 20.7739L43.2394 20.6696L43.1968 20.5649L43.1553 20.4597L43.1148 20.3539L43.0754 20.2478L43.037 20.1412L42.9997 20.0341L42.9635 19.9266L42.9284 19.8187L42.8943 19.7104L42.8614 19.6018L42.8295 19.4926L42.7988 19.3832L42.7691 19.2734L42.7406 19.1631L42.7132 19.0526L42.6869 18.9418L42.6618 18.8306L42.6377 18.719L42.6148 18.6073L42.5931 18.4952L42.5724 18.3828L42.5529 18.2702L42.5346 18.1573L42.5174 18.0442L42.5014 17.9308L42.4865 17.8172L42.4728 17.7034L42.4602 17.5894L42.4488 17.4752L42.4386 17.3608L42.4295 17.2462L42.4216 17.1316L42.4149 17.0167L42.4094 16.9018L42.405 16.7867L42.4018 16.6715L42.3998 16.5562L42.399 16.4408L42.3994 16.3254L42.4009 16.2098L42.4037 16.0943L42.4076 15.9787L42.4128 15.863L42.4191 15.7474L42.4266 15.6318L42.4353 15.5162L42.4452 15.4005L42.4563 15.285L42.4685 15.1694L42.482 15.0539L42.4967 14.9385L42.5126 14.8231L42.5296 14.7078L42.5479 14.5927L42.5673 14.4777L42.5879 14.3628L42.6098 14.248L42.6328 14.1334L42.657 14.019L42.6824 13.9046L42.709 13.7906L42.7368 13.6766L42.7657 13.563L42.7959 13.4495L42.8272 13.3362L42.8597 13.2233L42.8934 13.1106L42.9283 12.9981L42.9643 12.8858L43.0016 12.774L43.0399 12.6624L43.0795 12.5511L43.1202 12.4402L43.1621 12.3295L43.2051 12.2193L43.2493 12.1094L43.2947 11.9998L43.3412 11.8907L43.3889 11.7819L43.4377 11.6736L43.4876 11.5657L43.5387 11.4582L43.5909 11.3511L43.6442 11.2446L43.6986 11.1384L43.7542 11.0328L43.8109 10.9276L43.8687 10.823L43.9276 10.7188L43.9876 10.6151L44.0487 10.5121L44.111 10.4095L44.1742 10.3075L44.2386 10.2061L44.3041 10.1052L44.3706 10.005L44.4381 9.90528L44.5069 9.80624L44.5765 9.70776L44.6473 9.60992L44.7191 9.5128L44.7919 9.41624L44.8658 9.3204L44.9407 9.2252L45.0166 9.13072L45.0935 9.03696L45.1714 8.94384L45.2504 8.85144L45.3303 8.75976L45.4112 8.66888L45.4931 8.57872L45.5759 8.48928L45.6597 8.40064L45.7445 8.31272L45.8302 8.22568L45.9169 8.13936L46.0045 8.05384L46.093 7.9692L46.1825 7.88528L46.2728 7.80232L46.3641 7.72008L46.4562 7.6388L46.5492 7.55832L46.6431 7.47872L46.7379 7.4L46.8335 7.32216L46.93 7.2452L47.0273 7.1692L47.1255 7.09408L47.2245 7.01992L47.3243 6.94664L47.4249 6.87432L47.5262 6.80296L47.6285 6.73256L47.7314 6.66312L47.8351 6.59472L47.9397 6.5272L48.0449 6.46072L48.1509 6.39523L48.2576 6.33074L48.365 6.26727L48.4731 6.20482L48.582 6.1434L48.6915 6.08301L48.8017 6.02367L48.9125 5.96538L49.0241 5.90815L49.1362 5.85198L49.249 5.79689L49.3625 5.74287L49.4765 5.68994L49.5912 5.6381L49.7065 5.58736L49.8223 5.53773L49.9387 5.48921L50.0557 5.4418L50.1731 5.39552L50.2912 5.35037L50.4097 5.30635L50.5289 5.26348L50.6485 5.22175L50.7685 5.18118L50.8891 5.14176L51.0101 5.10351L51.1316 5.06642L51.2535 5.03051L51.3759 4.99578L51.4986 4.96223L51.6218 4.92987L51.7454 4.8987L51.8694 4.86874L51.9937 4.83998L52.1185 4.81241L52.2435 4.78606L52.3689 4.76092L52.4946 4.73701L52.6206 4.71431L52.7469 4.69284L52.8736 4.6726L53.0005 4.65359L53.1276 4.63582L53.2549 4.61929L53.3025 4.61359ZM53.3562 9.14888L53.3196 6.05751L53.2152 6.0721L53.1029 6.08893L52.9906 6.10687L52.879 6.12584L52.7673 6.14597L52.6561 6.16713L52.5451 6.18938L52.4345 6.21266L52.3242 6.23706L52.2141 6.26253L52.1044 6.28905L51.9951 6.31662L51.8859 6.34529L51.781 6.37392L51.6693 6.40568L51.5613 6.43744L51.4539 6.47024L51.347 6.504L51.2404 6.53888L51.1341 6.5748L51.0284 6.61168L50.9232 6.64952L50.8184 6.68848L50.7141 6.72832L50.6101 6.76928L50.507 6.81112L50.4039 6.85408L50.3016 6.89792L50.1997 6.94272L50.0986 6.98848L49.9977 7.03528L49.8974 7.08304L49.798 7.1316L49.6987 7.18128L49.6005 7.23176L49.5024 7.28336L49.4053 7.3356L49.3083 7.38912L49.2123 7.4432L49.1169 7.49832L49.0221 7.5544L48.9279 7.61128L48.8342 7.6692L48.7415 7.72776L48.6492 7.78736L48.5577 7.84776L48.4669 7.90896L48.3768 7.97112L48.2872 8.03416L48.1986 8.09776L48.1105 8.16248L48.0232 8.22792L47.9366 8.29416L47.8509 8.36112L47.7657 8.42904L47.6814 8.4976L47.5979 8.56696L47.515 8.63728L47.4332 8.70808L47.3519 8.77984L47.2714 8.85232L47.1918 8.92544L47.1131 8.99928L47.0349 9.074L46.9579 9.1492L46.8816 9.2252L46.806 9.302L46.7313 9.37936L46.6575 9.45752L46.5845 9.53624L46.5125 9.6156L46.4412 9.69568L46.3707 9.77648L46.3014 9.85768L46.2328 9.93968L46.165 10.0223L46.0982 10.1054L46.0324 10.1891L45.9673 10.2736L45.9032 10.3585L45.84 10.444L45.7777 10.5301L45.7164 10.6167L45.6561 10.7038L45.5966 10.7914L45.5381 10.8797L45.4805 10.9684L45.4239 11.0575L45.3683 11.1472L45.3136 11.2375L45.2598 11.3281L45.2071 11.4192L45.1553 11.5108L45.1045 11.6026L45.0547 11.6951L45.0057 11.7881L44.958 11.8812L44.9111 11.975L44.8653 12.069L44.8204 12.1634L44.7765 12.2582L44.7337 12.3534L44.6918 12.4489L44.6509 12.5447L44.6112 12.6409L44.5724 12.7374L44.5345 12.8342L44.4977 12.9314L44.4621 13.0287L44.4273 13.1265L44.3937 13.2243L44.3609 13.3226L44.3293 13.421L44.2987 13.5198L44.2692 13.6186L44.2406 13.7178L44.2132 13.817L44.1867 13.9166L44.1613 14.0163L44.1369 14.1162L44.1136 14.2163L44.0914 14.3165L44.0701 14.4169L44.0499 14.5174L44.0308 14.6179L44.0127 14.7187L43.9957 14.8195L43.9797 14.9205L43.9647 15.0214L43.9508 15.1225L43.938 15.2236L43.9262 15.3248L43.9154 15.426L43.9057 15.5273L43.897 15.6286L43.8894 15.7298L43.8828 15.8311L43.8773 15.9324L43.8728 16.0336L43.8694 16.1348L43.867 16.2359L43.8656 16.337L43.8653 16.4382L43.866 16.5391L43.8677 16.64L43.8705 16.7408L43.8743 16.8414L43.8792 16.9421L43.8851 17.0426L43.8919 17.1428L43.8999 17.243L43.9088 17.343L43.9188 17.4429L43.9298 17.5426L43.9418 17.6421L43.9548 17.7414L43.9688 17.8405L43.9838 17.9394L43.9999 18.038L44.0169 18.1365L44.0349 18.2347L44.0539 18.3326L44.0739 18.4303L44.0949 18.5277L44.1169 18.6249L44.1399 18.7216L44.1638 18.8182L44.1887 18.9144L44.2146 19.0103L44.2414 19.1058L44.2693 19.2011L44.298 19.296L44.3277 19.3906L44.3584 19.4848L44.39 19.5786L44.4225 19.6719L44.456 19.765L44.4904 19.8576L44.5257 19.9498L44.562 20.0416L44.5991 20.133L44.6372 20.2239L44.6761 20.3144L44.7161 20.4044L44.7568 20.494L44.7985 20.583L44.841 20.6717L44.8844 20.7598L44.9287 20.8474L44.9738 20.9346L45.0198 21.0213L45.0667 21.1074L45.1144 21.193L45.1629 21.278L45.2123 21.3625L45.2625 21.4464L45.3136 21.5298L45.3654 21.6126L45.4181 21.6949L45.4716 21.7766L45.5257 21.8576L45.5809 21.9382L45.6366 22.018L45.6933 22.0973L45.7506 22.1759L45.8088 22.2539L45.8677 22.3313L45.9273 22.4081L45.9877 22.4842L46.0488 22.5596L46.1106 22.6344L46.1732 22.7086L46.2365 22.7819L46.3005 22.8548L46.3651 22.9268L46.4305 22.9982L46.4965 23.0689L46.5632 23.1389L46.6305 23.2082L46.6986 23.2767L46.7673 23.3446L46.8366 23.4117L46.9066 23.4781L46.9771 23.5437L47.0484 23.6086L47.1201 23.6727L47.1925 23.7361L47.2656 23.7987L47.3392 23.8606L47.4133 23.9217L47.4881 23.9819L47.5633 24.0414L47.6392 24.1002L47.7156 24.1582L47.7925 24.2153L47.8699 24.2716L47.9478 24.3271L48.0263 24.3818L48.1053 24.4358L48.1848 24.4889L48.2647 24.5411L48.3451 24.5926L48.426 24.6432L48.5073 24.693L48.589 24.7419L48.6713 24.79L48.7538 24.8372L48.8369 24.8836L48.9203 24.9291L49.0042 24.9738L49.0885 25.0177L49.173 25.0606L49.2581 25.1027L49.3435 25.1439L49.4292 25.1843L49.5152 25.2238L49.6017 25.2624L49.6883 25.3001L49.7753 25.3369L49.8627 25.3729L49.9504 25.4079L50.0382 25.4421L50.1265 25.4754L50.2149 25.5078L50.3037 25.5393L50.3926 25.5698L50.4819 25.5996L50.5713 25.6283L50.661 25.6562L50.7509 25.6832L50.841 25.7093L50.9313 25.7345L51.0217 25.7587L51.1124 25.7822L51.2032 25.8046L51.2941 25.8261L51.3853 25.8467L51.4765 25.8665L51.5679 25.8853L51.6593 25.9031L51.751 25.9201L51.8426 25.9362L51.9345 25.9514L52.0263 25.9655L52.1182 25.9789L52.2102 25.9913L52.3022 26.0028L52.3943 26.0134L52.4864 26.023L52.5785 26.0318L52.6707 26.0396L52.7629 26.0465L52.855 26.0526L52.9471 26.0576L53.0392 26.0618L53.1313 26.0651L53.2233 26.0675L53.3153 26.069L53.4072 26.0695L53.499 26.0692L53.5908 26.0679L53.6825 26.0658L53.774 26.0628L53.8655 26.0589L53.9568 26.054L54.048 26.0483L54.139 26.0417L54.23 26.0342L54.3207 26.0258L54.4113 26.0165L54.5018 26.0063L54.5921 25.9953L54.6821 25.9834L54.772 25.9706L54.8617 25.957L54.9511 25.9424L55.0402 25.927L55.1293 25.9107L55.218 25.8936L55.3065 25.8757L55.3948 25.8568L55.4826 25.8371L55.5703 25.8166L55.6577 25.7952L55.7448 25.773L55.8316 25.75L55.9181 25.7261L56.0042 25.7014L56.0901 25.6758L56.1755 25.6495L56.2606 25.6223L56.3455 25.5943L56.4299 25.5655L56.514 25.5359L56.5977 25.5055L56.6809 25.4743L56.7638 25.4423L56.8463 25.4095L56.9285 25.3759L57.0101 25.3416L57.0913 25.3065L57.1722 25.2706L57.2525 25.234L57.3325 25.1966L57.4121 25.1584L57.4909 25.1196L57.5697 25.0798L57.6477 25.0395L57.7253 24.9983L57.8023 24.9566L57.8789 24.914L57.9551 24.8707L58.0306 24.8267L58.1057 24.782L58.1803 24.7366L58.2542 24.6906L58.3278 24.6438L58.4006 24.5964L58.473 24.5482L58.5449 24.4994L58.6161 24.4499L58.6867 24.3999L58.7569 24.349L58.8264 24.2978L58.8953 24.2457L58.9637 24.193L59.0313 24.1398L59.0985 24.0858L59.1651 24.0312L59.2308 23.9762L59.2962 23.9202L59.3608 23.864L59.4247 23.8072L59.4882 23.7495L59.5508 23.6916L59.6129 23.633L59.6743 23.5738L59.7349 23.5141L59.795 23.4538L59.8545 23.393L59.9132 23.3316L59.9711 23.2698L60.0285 23.2074L60.0852 23.1445L60.141 23.0812L60.1964 23.0172L60.2509 22.9529L60.3046 22.8881L60.3578 22.8226L60.4101 22.757L60.4618 22.6907L60.5128 22.6241L60.563 22.5569L60.6125 22.4894L60.6611 22.4215L60.7092 22.353L60.7564 22.2842L60.8029 22.215L60.8487 22.1454L60.8935 22.0755L60.9378 22.0051L60.9813 21.9343L61.024 21.8633L61.0658 21.7918L61.1071 21.7199L61.1473 21.648L61.187 21.5754L61.2258 21.5026L61.2637 21.4296L61.3011 21.356L61.3374 21.2826L61.3732 21.2083L61.4079 21.1343L61.4421 21.0595L61.4753 20.9849L61.5078 20.9096L61.5395 20.8344L61.5703 20.7589L61.6004 20.683L61.6297 20.607L61.658 20.5309L61.6857 20.4543L61.7125 20.3777L61.7385 20.3009L61.7637 20.2238L61.7881 20.1466L61.8117 20.0692L61.8344 19.9918L61.8563 19.914L61.8773 19.8362L61.8977 19.7582L61.9171 19.6802L61.9357 19.6021L61.9536 19.5236L61.9705 19.4452L61.9868 19.3667L62.0021 19.2882L62.0166 19.2096L62.0303 19.1306L62.0432 19.052L62.0553 18.9731L62.0665 18.8942L62.0769 18.8154L62.0865 18.7364L62.0953 18.6572L62.1032 18.5786L62.1104 18.4993L62.1167 18.4203L62.1221 18.3415L62.1269 18.2625L62.1307 18.1836L62.1337 18.1048L62.136 18.0258L62.1373 17.9472L62.138 17.8683L62.1377 17.7897L62.1368 17.711L62.1349 17.6327L62.1323 17.5542L62.1289 17.4759L62.1246 17.3979L62.1196 17.3197L62.1137 17.2417L62.1072 17.1641L62.0997 17.0862L62.0915 17.0089L62.0825 16.9314L62.0727 16.8542L62.0621 16.7772L62.0508 16.7002L62.0386 16.6236L62.0257 16.5472L62.0121 16.471L61.9976 16.395L61.9823 16.3189L61.9663 16.2434L61.9496 16.1681L61.9321 16.0929L61.9137 16.0178L61.8948 15.9434L61.8749 15.8688L61.8545 15.7948L61.8332 15.7209L61.8112 15.6474L61.7885 15.5741L61.7649 15.501L61.7408 15.4285L61.7159 15.3562L61.6901 15.2839L61.6639 15.2123L61.6368 15.1409L61.609 15.0699L61.5805 14.9991L61.5513 14.9286L61.5215 14.8588L61.4909 14.789L61.4597 14.7198L61.4277 14.651L61.3951 14.5824L61.3617 14.5142L61.3279 14.4466L61.2932 14.3791L61.258 14.3123L61.2221 14.2459L61.1854 14.1796L61.1483 14.1141L61.1104 14.0488L61.0719 13.9841L61.0327 13.9196L60.9931 13.8558L60.9526 13.7922L60.9117 13.7294L60.8701 13.6669L60.828 13.6049L60.7851 13.5432L60.7417 13.4822L60.6979 13.4217L60.6533 13.3614L60.6082 13.3019L60.5625 13.2428L60.5164 13.1843L60.4695 13.1262L60.4221 13.0686L60.3742 13.0116L60.3258 12.955L60.2769 12.8992L60.2273 12.8437L60.1774 12.7889L60.1269 12.7345L60.076 12.6809L60.0243 12.6275L59.9724 12.575L59.9197 12.5227L59.8668 12.4713L59.8134 12.4204L59.7595 12.37L59.705 12.3202L59.6501 12.271L59.5949 12.2225L59.5389 12.1743L59.483 12.1271L59.4263 12.0802L59.3693 12.034L59.3118 11.9885L59.2539 11.9434L59.1957 11.899L59.1372 11.8554L59.078 11.8122L59.0184 11.7696L58.9588 11.7279L58.8984 11.6866L58.8381 11.6462L58.7772 11.6062L58.7159 11.5668L58.6542 11.5281L58.5925 11.4902L58.5301 11.4527L58.4676 11.4161L58.4045 11.3799L58.3416 11.3446L58.2781 11.3099L58.2142 11.2758L58.1501 11.2423L58.0859 11.2097L58.0213 11.1775L57.9563 11.1461L57.8913 11.1154L57.8261 11.0854L57.7601 11.0558L57.6945 11.0272L57.6285 10.9992L57.5621 10.9718L57.4956 10.9451L57.429 10.9192L57.3621 10.8939L57.2949 10.8692L57.2277 10.8454L57.1602 10.8221L57.0925 10.7995L57.0249 10.7777L56.957 10.7566L56.8891 10.7361L56.8206 10.7162L56.7524 10.6972L56.684 10.6788L56.6154 10.6611L56.5468 10.6441L56.4778 10.6278L56.409 10.6122L56.3402 10.5973L56.2711 10.583L56.2018 10.5694L56.1329 10.5567L56.0636 10.5446L55.9944 10.5331L55.9249 10.5223L55.8557 10.5123L55.7861 10.5029L55.7169 10.4943L55.6474 10.4863L55.578 10.479L55.5086 10.4725L55.4391 10.4666L55.3699 10.4614L55.3003 10.4569L55.231 10.453L55.1619 10.4499L55.0923 10.4474L55.0233 10.4457L54.9541 10.4446L54.8851 10.4442L54.8379 10.4444L54.8737 13.4647L54.895 13.4648L54.9347 13.4654L54.9745 13.4663L55.0143 13.4676L55.0541 13.4694L55.0941 13.4716L55.134 13.4742L55.174 13.4772L55.214 13.4806L55.2541 13.4845L55.2941 13.4887L55.3342 13.4934L55.3744 13.4985L55.4145 13.504L55.4546 13.5099L55.4948 13.5163L55.5349 13.5231L55.575 13.5303L55.6152 13.538L55.6553 13.546L55.6953 13.5546L55.7354 13.5634L55.7755 13.5728L55.8154 13.5826L55.8554 13.5927L55.8953 13.6034L55.9352 13.6144L55.975 13.6258L56.0148 13.6378L56.0545 13.6501L56.0941 13.6629L56.1337 13.6761L56.1731 13.6897L56.2125 13.7037L56.2518 13.7182L56.291 13.733L56.3301 13.7483L56.3692 13.7641L56.4081 13.7802L56.4469 13.7968L56.4856 13.8138L56.5241 13.8313L56.5626 13.8491L56.6009 13.8674L56.6391 13.8861L56.6772 13.9052L56.715 13.9248L56.7528 13.9447L56.7904 13.9651L56.8278 13.9859L56.8651 14.0071L56.9022 14.0287L56.9391 14.0507L56.9759 14.0732L57.0125 14.0961L57.0489 14.1194L57.085 14.143L57.121 14.167L57.1569 14.1916L57.1925 14.2165L57.2278 14.2418L57.263 14.2674L57.298 14.2935L57.3327 14.32L57.3672 14.3469L57.4015 14.3742L57.4355 14.4018L57.4693 14.4298L57.5029 14.4583L57.5361 14.4871L57.5692 14.5163L57.602 14.5459L57.6345 14.5759L57.6667 14.6062L57.6986 14.637L57.7304 14.6681L57.7617 14.6995L57.7929 14.7314L57.8237 14.7635L57.8542 14.7961L57.8845 14.829L57.9144 14.8623L57.9441 14.8959L57.9733 14.9299L58.0023 14.9642L58.031 14.9989L58.0593 15.0339L58.0873 15.0693L58.115 15.105L58.1424 15.141L58.1694 15.1774L58.1961 15.2141L58.2223 15.251L58.2483 15.2884L58.2739 15.3261L58.2991 15.3641L58.324 15.4023L58.3485 15.441L58.3726 15.4798L58.3964 15.519L58.4197 15.5586L58.4427 15.5983L58.4653 15.6384L58.4875 15.6788L58.5093 15.7194L58.5308 15.7604L58.5517 15.8016L58.5724 15.843L58.5925 15.8848L58.6123 15.9269L58.6317 15.9691L58.6506 16.0117L58.6692 16.0545L58.6873 16.0975L58.7049 16.1408L58.7221 16.1843L58.7389 16.2281L58.7553 16.2721L58.7713 16.3163L58.7867 16.3608L58.8017 16.4054L58.8163 16.4503L58.8304 16.4954L58.8441 16.5407L58.8573 16.5862L58.87 16.632L58.8823 16.6778L58.8941 16.7239L58.9054 16.7702L58.9163 16.8167L58.9267 16.8633L58.9366 16.9102L58.9461 16.9571L58.9549 17.0042L58.9634 17.0515L58.9714 17.099L58.9789 17.1465L58.9859 17.1942L58.9924 17.2421L58.9984 17.2901L59.0039 17.3382L59.0089 17.3865L59.0134 17.4348L59.0174 17.4833L59.0209 17.5319L59.0239 17.5806L59.0264 17.6294L59.0283 17.6782L59.0298 17.7272L59.0307 17.7762L59.0312 17.8254L59.031 17.8745L59.0305 17.9238L59.0293 17.9731L59.0277 18.0225L59.0255 18.0719L59.0228 18.1214L59.0196 18.1709L59.0158 18.2204L59.0115 18.27L59.0067 18.3196L59.0014 18.3692L58.9955 18.4188L58.9891 18.4685L58.9822 18.5182L58.9748 18.5678L58.9668 18.6174L58.9582 18.667L58.9492 18.7166L58.9396 18.7662L58.9295 18.8157L58.9188 18.8652L58.9076 18.9146L58.8959 18.9641L58.8836 19.0134L58.8708 19.0628L58.8575 19.112L58.8436 19.1612L58.8292 19.2102L58.8142 19.2593L58.7988 19.3082L58.7828 19.357L58.7662 19.4058L58.7492 19.4545L58.7315 19.503L58.7133 19.5514L58.6947 19.5997L58.6755 19.6479L58.6557 19.6959L58.6355 19.7438L58.6147 19.7916L58.5933 19.8393L58.5715 19.8867L58.5491 19.934L58.5261 19.9812L58.5028 20.0282L58.4788 20.075L58.4543 20.1216L58.4293 20.168L58.4037 20.2142L58.3777 20.2603L58.3512 20.3062L58.3241 20.3518L58.2965 20.3972L58.2684 20.4425L58.2398 20.4874L58.2107 20.5322L58.181 20.5767L58.1509 20.621L58.1203 20.665L58.0892 20.7088L58.0575 20.7523L58.0254 20.7956L57.9928 20.8386L57.9597 20.8813L57.9261 20.9238L57.892 20.9659L57.8574 21.0078L57.8224 21.0494L57.7869 21.0906L57.7508 21.1316L57.7143 21.1722L57.6773 21.2126L57.6399 21.2526L57.6021 21.2923L57.5637 21.3318L57.5249 21.3708L57.4856 21.4094L57.4459 21.4478L57.4057 21.4858L57.365 21.5234L57.324 21.5607L57.2825 21.5977L57.2405 21.6342L57.1981 21.6704L57.1553 21.7062L57.1121 21.7416L57.0684 21.7766L57.0243 21.8112L56.9798 21.8454L56.9349 21.8793L56.8896 21.9127L56.8439 21.9457L56.7977 21.9782L56.7513 22.0105L56.7043 22.0422L56.657 22.0735L56.6093 22.1043L56.5613 22.1348L56.5128 22.1648L56.464 22.1943L56.4148 22.2234L56.3653 22.252L56.3153 22.2802L56.265 22.3078L56.2145 22.3351L56.1635 22.3618L56.1122 22.3882L56.0605 22.4139L56.0086 22.4393L55.9563 22.4641L55.9037 22.4884L55.8508 22.5122L55.7975 22.5355L55.744 22.5584L55.6901 22.5807L55.636 22.6025L55.5815 22.6238L55.5268 22.6446L55.4717 22.6648L55.4165 22.6846L55.3609 22.7038L55.3051 22.7224L55.249 22.7406L55.1927 22.7581L55.1361 22.7751L55.0793 22.7917L55.0222 22.8076L54.9649 22.823L54.9074 22.8378L54.8497 22.8522L54.7917 22.8658L54.7335 22.879L54.6751 22.8916L54.6165 22.9037L54.5577 22.9151L54.4988 22.926L54.4397 22.9363L54.3803 22.9461L54.3209 22.9552L54.2612 22.9638L54.2014 22.9718L54.1414 22.9792L54.0813 22.986L54.0211 22.9922L53.9607 22.9978L53.9002 23.0028L53.8396 23.0073L53.7788 23.011L53.718 23.0143L53.657 23.017L53.596 23.019L53.5348 23.0203L53.4736 23.0211L53.4123 23.0214L53.3509 23.021L53.2895 23.0199L53.228 23.0182L53.1665 23.016L53.1049 23.0131L53.0432 23.0096L52.9815 23.0055L52.9198 23.0008L52.8581 22.9954L52.7964 22.9894L52.7347 22.9829L52.6729 22.9756L52.6113 22.9678L52.5495 22.9593L52.4878 22.9502L52.4261 22.9405L52.3645 22.9302L52.3029 22.9192L52.2414 22.9076L52.1799 22.8954L52.1185 22.8826L52.0571 22.8691L51.9958 22.855L51.9346 22.8402L51.8734 22.825L51.8124 22.809L51.7515 22.7923L51.6906 22.7751L51.63 22.7573L51.5693 22.7388L51.5089 22.7197L51.4485 22.7L51.3883 22.6797L51.3283 22.6587L51.2684 22.6371L51.2086 22.6149L51.1491 22.5921L51.0897 22.5686L51.0305 22.5446L50.9714 22.5199L50.9126 22.4946L50.854 22.4687L50.7955 22.4422L50.7373 22.4151L50.6793 22.3874L50.6215 22.359L50.564 22.3301L50.5067 22.3006L50.4497 22.2704L50.3929 22.2397L50.3363 22.2083L50.2801 22.1764L50.224 22.1438L50.1683 22.1107L50.1129 22.077L50.0577 22.0427L50.0029 22.0078L49.9483 21.9724L49.8941 21.9363L49.8401 21.8997L49.7866 21.8625L49.7333 21.8247L49.6804 21.7864L49.6278 21.7474L49.5756 21.708L49.5237 21.668L49.4722 21.6274L49.4211 21.5862L49.3703 21.5446L49.3199 21.5023L49.2699 21.4595L49.2203 21.4162L49.1711 21.3723L49.1223 21.3279L49.0739 21.283L49.0259 21.2375L48.9784 21.1915L48.9312 21.145L48.8845 21.098L48.8383 21.0505L48.7925 21.0024L48.7471 20.9539L48.7022 20.9048L48.6578 20.8553L48.6138 20.8053L48.5704 20.7547L48.5273 20.7038L48.4848 20.6522L48.4428 20.6002L48.4013 20.5478L48.3602 20.495L48.3197 20.4416L48.2797 20.3878L48.2402 20.3335L48.2013 20.2788L48.1628 20.2236L48.1249 20.168L48.0875 20.112L48.0507 20.0555L48.0145 19.9986L47.9787 19.9414L47.9436 19.8837L47.9089 19.8255L47.8749 19.767L47.8415 19.7081L47.8086 19.6488L47.7763 19.5891L47.7446 19.529L47.7135 19.4686L47.6829 19.4078L47.653 19.3466L47.6237 19.285L47.595 19.2232L47.5669 19.161L47.5395 19.0984L47.5126 19.0354L47.4864 18.9722L47.4608 18.9086L47.4358 18.8448L47.4115 18.7806L47.3879 18.7161L47.3649 18.6513L47.3425 18.5862L47.3207 18.5209L47.2997 18.4552L47.2793 18.3893L47.2595 18.3231L47.2404 18.2566L47.222 18.1899L47.2043 18.123L47.1872 18.0558L47.1709 17.9883L47.1552 17.9207L47.1401 17.8528L47.1258 17.7847L47.1122 17.7164L47.0993 17.6479L47.087 17.5792L47.0755 17.5103L47.0647 17.4413L47.0545 17.372L47.0451 17.3026L47.0365 17.233L47.0285 17.1634L47.0212 17.0934L47.0146 17.0234L47.0088 16.9533L47.0037 16.883L46.9993 16.8126L46.9956 16.7422L46.9926 16.6716L46.9904 16.6009L46.9889 16.5301L46.9882 16.4593L46.9881 16.3883L46.9889 16.3173L46.9904 16.2462L46.9925 16.1751L46.9955 16.1039L46.9992 16.0327L47.0036 15.9615L47.0087 15.8902L47.0146 15.819L47.0213 15.7477L47.0286 15.6764L47.0368 15.6051L47.0457 15.5338L47.0553 15.4626L47.0657 15.3914L47.0768 15.3202L47.0887 15.2491L47.1013 15.178L47.1146 15.107L47.1288 15.036L47.1437 14.9651L47.1593 14.8943L47.1756 14.8236L47.1927 14.753L47.2105 14.6825L47.2292 14.6121L47.2485 14.5418L47.2686 14.4717L47.2894 14.4016L47.311 14.3318L47.3333 14.262L47.3564 14.1924L47.3802 14.123L47.4048 14.0538L47.4301 13.9847L47.4561 13.9158L47.4829 13.8472L47.5104 13.7787L47.5386 13.7104L47.5676 13.6424L47.5973 13.5746L47.6277 13.507L47.6589 13.4396L47.6908 13.3725L47.7233 13.3057L47.7567 13.239L47.7907 13.1727L47.8255 13.1067L47.8609 13.041L47.8972 12.9755L47.9341 12.9103L47.9717 12.8454L48.01 12.781L48.049 12.7167L48.0887 12.6528L48.1292 12.5893L48.1703 12.526L48.2121 12.4631L48.2545 12.4006L48.2977 12.3385L48.3416 12.2767L48.3861 12.2154L48.4313 12.1543L48.4772 12.0937L48.5237 12.0335L48.5709 11.9737L48.6189 11.9143L48.6674 11.8553L48.7165 11.7968L48.7664 11.7386L48.8169 11.681L48.868 11.6238L48.9197 11.567L48.9721 11.5107L49.0252 11.4549L49.0789 11.3995L49.1331 11.3446L49.188 11.2902L49.2435 11.2363L49.2996 11.183L49.3563 11.1301L49.4136 11.0777L49.4714 11.0258L49.5299 10.9745L49.589 10.9238L49.6486 10.8734L49.7089 10.8238L49.7696 10.7746L49.8309 10.726L49.8928 10.678L49.9553 10.6306L50.0182 10.5837L50.0817 10.5374L50.1458 10.4917L50.2104 10.4466L50.2755 10.402L50.3412 10.3581L50.4073 10.3148L50.4739 10.2722L50.5411 10.2301L50.6087 10.1886L50.6769 10.1478L50.7454 10.1077L50.8145 10.0682L50.8841 10.0293L50.9541 9.99104L51.0245 9.95352L51.0954 9.91664L51.1668 9.8804L51.2385 9.84488L51.3108 9.81L51.3834 9.77584L51.4565 9.74232L51.5299 9.70952L51.6037 9.67744L51.6781 9.646L51.7527 9.61528L51.8277 9.58536L51.9031 9.55608L51.9789 9.52752L52.0549 9.49968L52.1314 9.47264L52.2083 9.44624L52.2854 9.42064L52.3629 9.39576L52.4407 9.3716L52.5189 9.34824L52.5973 9.3256L52.676 9.30376L52.755 9.28264L52.8343 9.26224L52.9139 9.24264L52.9937 9.22384L53.0739 9.20584L53.1542 9.18856L53.2349 9.17208L53.3157 9.1564L53.3562 9.14888ZM54.3497 14.9571L53.4277 15.1774L53.3735 10.6098L53.3301 10.6196L53.2646 10.635L53.1993 10.6511L53.1344 10.6678L53.0696 10.685L53.0052 10.703L52.9408 10.7216L52.877 10.7406L52.8131 10.7605L52.75 10.7807L52.6867 10.8018L52.6238 10.8234L52.5613 10.8455L52.4989 10.8682L52.4372 10.8915L52.3755 10.9155L52.3141 10.94L52.2532 10.965L52.1923 10.9908L52.1322 11.0169L52.0721 11.0438L52.0126 11.071L51.9532 11.099L51.8943 11.1274L51.8356 11.1565L51.7775 11.186L51.7197 11.2161L51.6622 11.2467L51.6052 11.2778L51.5485 11.3095L51.4921 11.3418L51.4365 11.3744L51.3807 11.4078L51.3257 11.4414L51.2711 11.4757L51.2169 11.5104L51.1629 11.5457L51.1096 11.5814L51.0566 11.6177L51.0041 11.6543L50.9521 11.6914L50.9003 11.7291L50.8491 11.7673L50.7984 11.8058L50.7481 11.8449L50.6983 11.8842L50.649 11.9242L50.6001 11.9646L50.5516 12.0054L50.5037 12.0466L50.4563 12.0882L50.4093 12.1302L50.3629 12.1727L50.3169 12.2157L50.2714 12.259L50.2265 12.3026L50.1819 12.3467L50.138 12.3911L50.0945 12.436L50.0517 12.4811L50.0091 12.5269L49.9673 12.5727L49.9259 12.619L49.885 12.6658L49.8448 12.7126L49.8049 12.7601L49.7658 12.8076L49.727 12.8558L49.6889 12.904L49.6513 12.9527L49.6142 13.0018L49.5777 13.051L49.5417 13.1005L49.5064 13.1503L49.4715 13.2006L49.4372 13.251L49.4035 13.3018L49.3704 13.3526L49.3378 13.4038L49.3057 13.4554L49.2744 13.5071L49.2434 13.5593L49.2132 13.6114L49.1834 13.6639L49.1542 13.7166L49.1257 13.7695L49.0977 13.8226L49.0704 13.876L49.0435 13.9297L49.0173 13.9833L48.9917 14.0374L48.9666 14.0914L48.9422 14.1458L48.9183 14.2002L48.895 14.255L48.8724 14.3097L48.8503 14.3647L48.8289 14.4198L48.8079 14.4751L48.7877 14.5304L48.768 14.586L48.7489 14.6417L48.7304 14.6974L48.7125 14.7533L48.6952 14.8094L48.6785 14.8654L48.6625 14.9215L48.6469 14.9778L48.632 15.0342L48.6177 15.0906L48.6041 15.1471L48.5909 15.2037L48.5785 15.2603L48.5666 15.317L48.5553 15.3737L48.5446 15.4304L48.5345 15.4873L48.5251 15.544L48.5162 15.6008L48.5079 15.6578L48.5002 15.7145L48.4932 15.7714L48.4867 15.8282L48.4808 15.885L48.4755 15.942L48.4708 15.9987L48.4667 16.0555L48.4632 16.1123L48.4602 16.169L48.4579 16.2256L48.4561 16.2822L48.455 16.3388L48.4544 16.3953L48.4545 16.4517L48.455 16.508L48.4562 16.5643L48.458 16.6205L48.4603 16.6766L48.4632 16.7326L48.4667 16.7884L48.4708 16.8442L48.4754 16.8998L48.4806 16.9554L48.4864 17.0109L48.4927 17.066L48.4996 17.1213L48.507 17.1762L48.5151 17.2311L48.5237 17.2858L48.5328 17.3403L48.5425 17.3948L48.5527 17.449L48.5635 17.503L48.5748 17.5568L48.5867 17.6106L48.5991 17.664L48.6121 17.7174L48.6255 17.7703L48.6396 17.8234L48.6541 17.8759L48.6691 17.9285L48.6847 17.9806L48.7008 18.0327L48.7174 18.0845L48.7345 18.1359L48.7522 18.1874L48.7704 18.2384L48.789 18.2891L48.8081 18.3398L48.8278 18.3901L48.848 18.4401L48.8686 18.4898L48.8897 18.5393L48.9113 18.5886L48.9334 18.6375L48.956 18.6862L48.979 18.7345L49.0025 18.7825L49.0265 18.8304L49.0509 18.8778L49.0757 18.9249L49.1011 18.9718L49.1269 19.0182L49.1532 19.0645L49.1798 19.1104L49.2069 19.1558L49.2345 19.2011L49.2625 19.246L49.2909 19.2905L49.3197 19.3347L49.3489 19.3786L49.3786 19.4222L49.4086 19.4651L49.4391 19.508L49.47 19.5504L49.5012 19.5924L49.5329 19.6342L49.5649 19.6754L49.5973 19.7163L49.6301 19.7569L49.6633 19.7971L49.6968 19.8368L49.7308 19.8762L49.765 19.9153L49.7996 19.9538L49.8347 19.9921L49.8699 20.0298L49.9056 20.0673L49.9416 20.1042L49.9778 20.1408L50.0145 20.177L50.0515 20.2127L50.0888 20.2481L50.1264 20.283L50.1643 20.3174L50.2025 20.3515L50.241 20.3851L50.2798 20.4183L50.3189 20.4511L50.3582 20.4834L50.3979 20.5154L50.4379 20.5468L50.478 20.5778L50.5185 20.6083L50.5592 20.6385L50.6001 20.6682L50.6413 20.6974L50.6828 20.7262L50.7245 20.7545L50.7664 20.7823L50.8085 20.8097L50.8508 20.8366L50.8935 20.8632L50.9362 20.8891L50.9792 20.9147L51.0225 20.9398L51.0657 20.9644L51.1093 20.9886L51.1532 21.0123L51.1971 21.0355L51.2412 21.0582L51.2854 21.0805L51.33 21.1023L51.3745 21.1236L51.4193 21.1445L51.4642 21.1649L51.5092 21.1847L51.5545 21.2042L51.5998 21.2231L51.6452 21.2416L51.6908 21.2596L51.7365 21.277L51.7824 21.2941L51.8281 21.3106L51.8743 21.3267L51.9203 21.3422L51.9665 21.3574L52.0128 21.372L52.0592 21.3862L52.1056 21.3998L52.1521 21.413L52.1987 21.4256L52.2453 21.4378L52.292 21.4495L52.3387 21.4608L52.3854 21.4715L52.4322 21.4818L52.4791 21.4916L52.526 21.5009L52.5729 21.5098L52.6197 21.5181L52.6667 21.526L52.7137 21.5334L52.7606 21.5403L52.8074 21.5467L52.8544 21.5526L52.9013 21.5582L52.9482 21.5632L52.9951 21.5677L53.042 21.5718L53.0888 21.5754L53.1355 21.5785L53.1823 21.5811L53.2289 21.5833L53.2755 21.585L53.3222 21.5862L53.3686 21.587L53.415 21.5874L53.4614 21.5872L53.5077 21.5866L53.554 21.5855L53.6001 21.584L53.6461 21.5821L53.692 21.5796L53.738 21.5767L53.7836 21.5734L53.8293 21.5696L53.8747 21.5654L53.9201 21.5607L53.9654 21.5555L54.0105 21.55L54.0556 21.544L54.1004 21.5375L54.145 21.5306L54.1897 21.5234L54.2341 21.5156L54.2784 21.5074L54.3225 21.4988L54.3665 21.4898L54.4102 21.4803L54.4537 21.4705L54.4973 21.4602L54.5405 21.4494L54.5836 21.4384L54.6265 21.4269L54.6691 21.415L54.7117 21.4026L54.754 21.3898L54.7959 21.3767L54.838 21.3631L54.8796 21.3492L54.921 21.335L54.9622 21.3202L55.0032 21.3051L55.0441 21.2896L55.0846 21.2738L55.1249 21.2575L55.1649 21.241L55.2048 21.2239L55.2445 21.2066L55.2837 21.1889L55.3229 21.1708L55.3617 21.1524L55.4001 21.1336L55.4385 21.1145L55.4765 21.095L55.5143 21.0752L55.5518 21.055L55.589 21.0345L55.6259 21.0137L55.6626 20.9925L55.699 20.971L55.735 20.9491L55.7708 20.927L55.8063 20.9045L55.8415 20.8818L55.8765 20.8586L55.911 20.8353L55.9453 20.8115L55.9793 20.7875L56.0129 20.7633L56.0463 20.7386L56.0793 20.7138L56.1121 20.6886L56.1445 20.6631L56.1766 20.6374L56.2083 20.6114L56.2397 20.5852L56.2708 20.5586L56.3015 20.5318L56.332 20.5048L56.3621 20.4774L56.3918 20.4499L56.4211 20.4222L56.4502 20.3941L56.4789 20.3658L56.5073 20.3373L56.5353 20.3086L56.5629 20.2795L56.5902 20.2504L56.6173 20.2209L56.6437 20.1914L56.6701 20.1614L56.6959 20.1314L56.7213 20.1012L56.7466 20.0706L56.7713 20.0401L56.7957 20.0092L56.8198 19.9782L56.8434 19.947L56.8668 19.9156L56.8897 19.8842L56.9122 19.8523L56.9345 19.8204L56.9562 19.7885L56.9777 19.7562L56.9988 19.7238L57.0193 19.6914L57.0397 19.6587L57.0596 19.6259L57.0791 19.593L57.0983 19.5599L57.117 19.5267L57.1354 19.4934L57.1534 19.4599L57.171 19.4265L57.1882 19.3928L57.2051 19.359L57.2216 19.3252L57.2377 19.2911L57.2533 19.2571L57.2686 19.223L57.2835 19.1888L57.2981 19.1544L57.3121 19.1201L57.326 19.0854L57.3393 19.0511L57.3523 19.0162L57.3648 18.9819L57.377 18.947L57.3889 18.9122L57.4002 18.8774L57.4113 18.8426L57.4219 18.8078L57.4322 18.7726L57.442 18.7378L57.4516 18.7026L57.4606 18.6678L57.4693 18.6326L57.4777 18.5974L57.4856 18.5625L57.4931 18.5276L57.5003 18.4922L57.5071 18.4573L57.5135 18.422L57.5195 18.3871L57.5252 18.3521L57.5305 18.317L57.5353 18.2818L57.5398 18.2468L57.544 18.2119L57.5477 18.1771L57.5511 18.142L57.5541 18.1072L57.5568 18.0723L57.559 18.0375L57.5609 18.0028L57.5625 17.9682L57.5636 17.9337L57.5644 17.899L57.5649 17.8643L57.5649 17.83L57.5646 17.7957L57.564 17.7614L57.5629 17.7273L57.5616 17.693L57.5598 17.6593L57.5577 17.6249L57.5553 17.5914L57.5525 17.5577L57.5494 17.5238L57.5459 17.4902L57.5421 17.457L57.5379 17.4234L57.5334 17.3904L57.5285 17.3572L57.5234 17.3245L57.5178 17.2914L57.512 17.2586L57.5058 17.2262L57.4993 17.1938L57.4925 17.1613L57.4853 17.1292L57.4778 17.0971L57.47 17.0653L57.4619 17.0337L57.4533 17.0018L57.4447 16.9706L57.4356 16.9391L57.4262 16.9082L57.4165 16.8772L57.4065 16.8465L57.3962 16.8158L57.3856 16.7853L57.3748 16.7552L57.3636 16.7252L57.3521 16.6951L57.3403 16.6655L57.3282 16.6358L57.316 16.6067L57.3033 16.5774L57.2905 16.5485L57.2773 16.5198L57.2638 16.4912L57.2501 16.4629L57.2361 16.4347L57.2219 16.4067L57.2074 16.379L57.1926 16.3515L57.1777 16.3242L57.1624 16.2971L57.1468 16.2702L57.1311 16.2436L57.1151 16.2172L57.0988 16.1909L57.0823 16.165L57.0656 16.1393L57.0486 16.1138L57.0314 16.0884L57.0141 16.0634L56.9964 16.0386L56.9785 16.014L56.9605 15.9897L56.9421 15.9656L56.9237 15.9418L56.9049 15.9181L56.8861 15.8948L56.8669 15.8717L56.8477 15.8488L56.8281 15.8262L56.8085 15.8038L56.7886 15.7818L56.7685 15.7599L56.7483 15.7382L56.7279 15.717L56.7073 15.6959L56.6865 15.675L56.6656 15.6546L56.6445 15.6343L56.6233 15.6143L56.6017 15.5945L56.5802 15.575L56.5585 15.5558L56.5366 15.5369L56.5145 15.5182L56.4924 15.4998L56.4701 15.4817L56.4477 15.4638L56.4251 15.4462L56.4024 15.4289L56.3796 15.4119L56.3566 15.3951L56.3335 15.3786L56.3104 15.3625L56.2871 15.3465L56.2637 15.3309L56.2402 15.3155L56.2165 15.3004L56.1929 15.2856L56.169 15.271L56.1452 15.2568L56.1213 15.2429L56.0972 15.2292L56.0729 15.2158L56.0488 15.2026L56.0245 15.1898L56.0001 15.1772L55.9758 15.165L55.9512 15.1529L55.9267 15.1412L55.9021 15.1298L55.8774 15.1186L55.8527 15.1078L55.8278 15.0971L55.8032 15.0869L55.7782 15.0769L55.7533 15.0671L55.7284 15.0577L55.7034 15.0485L55.6785 15.0396L55.6534 15.031L55.6284 15.0226L55.6034 15.0146L55.5783 15.0067L55.5532 14.9992L55.5282 14.992L55.5029 14.985L55.478 14.9784L55.4529 14.972L55.4277 14.9658L55.4026 14.96L55.3776 14.9544L55.3525 14.9491L55.3274 14.9441L55.3025 14.9393L55.2775 14.9348L55.2524 14.9306L55.2276 14.9266L55.2025 14.923L55.1777 14.9195L55.1528 14.9163L55.128 14.9134L55.1033 14.9108L55.0785 14.9085L55.0539 14.9063L55.0293 14.9045L55.0047 14.9029L54.9801 14.9015L54.9557 14.9005L54.9314 14.8997L54.907 14.899L54.8828 14.8987L54.8585 14.8986L54.8345 14.8989L54.8104 14.8993L54.7865 14.8999L54.7625 14.9009L54.7389 14.902L54.715 14.9034L54.6915 14.905L54.668 14.9069L54.6445 14.909L54.6213 14.9114L54.5979 14.9139L54.5749 14.9167L54.5518 14.9198L54.5289 14.923L54.5061 14.9266L54.4834 14.9302L54.4608 14.9342L54.4385 14.9383L54.416 14.9427L54.3938 14.9473L54.3717 14.9521L54.3497 14.9571Z" fill="#A2A9B0"/>
<path d="M86.6063 19.5352C86.6063 19.2305 86.5594 18.957 86.4656 18.7148C86.3797 18.4648 86.2156 18.2383 85.9734 18.0352C85.7313 17.8242 85.3914 17.6172 84.9539 17.4141C84.5164 17.2109 83.95 17 83.2547 16.7812C82.4813 16.5312 81.7469 16.25 81.0516 15.9375C80.3641 15.625 79.7547 15.2617 79.2234 14.8477C78.7 14.4258 78.2859 13.9375 77.9813 13.3828C77.6844 12.8281 77.5359 12.1836 77.5359 11.4492C77.5359 10.7383 77.6922 10.0938 78.0047 9.51562C78.3172 8.92969 78.7547 8.42969 79.3172 8.01562C79.8797 7.59375 80.5438 7.26953 81.3094 7.04297C82.0828 6.81641 82.9305 6.70312 83.8524 6.70312C85.1102 6.70312 86.2078 6.92969 87.1453 7.38281C88.0828 7.83594 88.8094 8.45703 89.325 9.24609C89.8484 10.0352 90.1102 10.9375 90.1102 11.9531H86.618C86.618 11.4531 86.5125 11.0156 86.3016 10.6406C86.0984 10.2578 85.7859 9.95703 85.3641 9.73828C84.95 9.51953 84.4266 9.41016 83.7938 9.41016C83.1844 9.41016 82.6766 9.50391 82.2703 9.69141C81.8641 9.87109 81.5594 10.1172 81.3563 10.4297C81.1531 10.7344 81.0516 11.0781 81.0516 11.4609C81.0516 11.75 81.1219 12.0117 81.2625 12.2461C81.4109 12.4805 81.6297 12.6992 81.9188 12.9023C82.2078 13.1055 82.5633 13.2969 82.9852 13.4766C83.407 13.6562 83.8953 13.832 84.45 14.0039C85.3797 14.2852 86.1961 14.6016 86.8992 14.9531C87.6102 15.3047 88.2039 15.6992 88.6805 16.1367C89.157 16.5742 89.5164 17.0703 89.7586 17.625C90.0008 18.1797 90.1219 18.8086 90.1219 19.5117C90.1219 20.2539 89.9774 20.918 89.6883 21.5039C89.3992 22.0898 88.9813 22.5859 88.4344 22.9922C87.8875 23.3984 87.2352 23.707 86.4774 23.918C85.7195 24.1289 84.8719 24.2344 83.9344 24.2344C83.0906 24.2344 82.2586 24.125 81.4383 23.9062C80.618 23.6797 79.8719 23.3398 79.2 22.8867C78.5359 22.4336 78.0047 21.8555 77.6063 21.1523C77.2078 20.4492 77.0086 19.6172 77.0086 18.6562H80.5359C80.5359 19.1875 80.618 19.6367 80.782 20.0039C80.9461 20.3711 81.1766 20.668 81.4734 20.8945C81.7781 21.1211 82.1375 21.2852 82.5516 21.3867C82.9734 21.4883 83.4344 21.5391 83.9344 21.5391C84.5438 21.5391 85.0438 21.4531 85.4344 21.2812C85.8328 21.1094 86.1258 20.8711 86.3133 20.5664C86.5086 20.2617 86.6063 19.918 86.6063 19.5352ZM103.891 13.8867V16.6289H94.9852V13.8867H103.891ZM96.0281 6.9375V24H92.5125V6.9375H96.0281ZM106.399 6.9375V24H102.895V6.9375H106.399ZM120.907 21.2578V24H111.825V21.2578H120.907ZM112.973 6.9375V24H109.458V6.9375H112.973ZM119.723 13.8867V16.5586H111.825V13.8867H119.723ZM120.895 6.9375V9.69141H111.825V6.9375H120.895ZM133.927 21.2578V24H125.337V21.2578H133.927ZM126.473 6.9375V24H122.958V6.9375H126.473ZM146.911 21.2578V24H138.321V21.2578H146.911ZM139.458 6.9375V24H135.942V6.9375H139.458ZM157.809 19.5352C157.809 19.2305 157.763 18.957 157.669 18.7148C157.583 18.4648 157.419 18.2383 157.177 18.0352C156.934 17.8242 156.595 17.6172 156.157 17.4141C155.72 17.2109 155.153 17 154.458 16.7812C153.684 16.5312 152.95 16.25 152.255 15.9375C151.567 15.625 150.958 15.2617 150.427 14.8477C149.903 14.4258 149.489 13.9375 149.184 13.3828C148.888 12.8281 148.739 12.1836 148.739 11.4492C148.739 10.7383 148.895 10.0938 149.208 9.51562C149.52 8.92969 149.958 8.42969 150.52 8.01562C151.083 7.59375 151.747 7.26953 152.513 7.04297C153.286 6.81641 154.134 6.70312 155.055 6.70312C156.313 6.70312 157.411 6.92969 158.348 7.38281C159.286 7.83594 160.013 8.45703 160.528 9.24609C161.052 10.0352 161.313 10.9375 161.313 11.9531H157.821C157.821 11.4531 157.716 11.0156 157.505 10.6406C157.302 10.2578 156.989 9.95703 156.567 9.73828C156.153 9.51953 155.63 9.41016 154.997 9.41016C154.388 9.41016 153.88 9.50391 153.473 9.69141C153.067 9.87109 152.763 10.1172 152.559 10.4297C152.356 10.7344 152.255 11.0781 152.255 11.4609C152.255 11.75 152.325 12.0117 152.466 12.2461C152.614 12.4805 152.833 12.6992 153.122 12.9023C153.411 13.1055 153.766 13.2969 154.188 13.4766C154.61 13.6562 155.098 13.832 155.653 14.0039C156.583 14.2852 157.399 14.6016 158.102 14.9531C158.813 15.3047 159.407 15.6992 159.884 16.1367C160.36 16.5742 160.72 17.0703 160.962 17.625C161.204 18.1797 161.325 18.8086 161.325 19.5117C161.325 20.2539 161.18 20.918 160.891 21.5039C160.602 22.0898 160.184 22.5859 159.638 22.9922C159.091 23.3984 158.438 23.707 157.68 23.918C156.923 24.1289 156.075 24.2344 155.138 24.2344C154.294 24.2344 153.462 24.125 152.641 23.9062C151.821 23.6797 151.075 23.3398 150.403 22.8867C149.739 22.4336 149.208 21.8555 148.809 21.1523C148.411 20.4492 148.212 19.6172 148.212 18.6562H151.739C151.739 19.1875 151.821 19.6367 151.985 20.0039C152.149 20.3711 152.38 20.668 152.677 20.8945C152.981 21.1211 153.341 21.2852 153.755 21.3867C154.177 21.4883 154.638 21.5391 155.138 21.5391C155.747 21.5391 156.247 21.4531 156.638 21.2812C157.036 21.1094 157.329 20.8711 157.516 20.5664C157.712 20.2617 157.809 19.918 157.809 19.5352Z" fill="#A2A9B0"/>
</svg>
