<svg width="200" height="32" viewBox="0 0 200 32" fill="none" xmlns="http://www.w3.org/2000/svg">
<path d="M34.6018 26.4845L13.1892 11.714C11.0193 10.2173 11.7569 7.10088 14.4627 6.36802L37.2205 0.191307C37.7026 0.0173566 38.2192 -0.0391112 38.7275 0.0265948C39.2357 0.0923008 39.721 0.278283 40.1431 0.569108C40.565 0.859932 40.9116 1.24721 41.1539 1.6988C41.3962 2.15038 41.5274 2.65326 41.5364 3.16568L40.1877 24.1116C40.0278 26.5978 36.7717 27.9812 34.6018 26.4845Z" fill="#A2A9B0"/>
<path d="M27.8104 30.1304L15.1955 5.46055C14.9072 4.89618 14.7803 4.26312 14.8289 3.63121C14.8774 2.9993 15.0996 2.39308 15.4708 1.8794C15.842 1.36572 16.3479 0.96454 16.9326 0.720098C17.5174 0.475655 18.1582 0.397452 18.7846 0.494119L42.1631 4.10227C42.7012 4.18535 43.2121 4.395 43.6536 4.71398C44.095 5.03297 44.4544 5.45218 44.7023 5.93714C44.95 6.4221 45.0793 6.95895 45.0792 7.50358C45.0791 8.04819 44.9497 8.58502 44.7018 9.0699L33.9322 30.1316C33.643 30.6943 33.2043 31.1665 32.6642 31.4961C32.1241 31.8257 31.5037 32 30.871 31.9999C30.2382 31.9997 29.6178 31.8252 29.0779 31.4955C28.5379 31.1656 28.0994 30.6933 27.8104 30.1304Z" fill="#A2A9B0"/>
<path d="M35.4999 8.72693L31.0111 8L25.4999 9.57011L27.6997 14.0856L32.8509 17.8153C32.9646 17.8966 33.0896 17.959 33.2215 18L35.1781 13.9852L35.4999 8.72693Z" fill="white"/>
<path d="M63.4855 19.5352C63.4855 19.2305 63.4386 18.957 63.3448 18.7148C63.2589 18.4648 63.0948 18.2383 62.8526 18.0352C62.6105 17.8242 62.2706 17.6172 61.8331 17.4141C61.3956 17.2109 60.8292 17 60.1339 16.7812C59.3605 16.5312 58.6261 16.25 57.9308 15.9375C57.2433 15.625 56.6339 15.2617 56.1026 14.8477C55.5792 14.4258 55.1651 13.9375 54.8605 13.3828C54.5636 12.8281 54.4151 12.1836 54.4151 11.4492C54.4151 10.7383 54.5714 10.0938 54.8839 9.51562C55.1964 8.92969 55.6339 8.42969 56.1964 8.01562C56.7589 7.59375 57.423 7.26953 58.1886 7.04297C58.962 6.81641 59.8097 6.70312 60.7316 6.70312C61.9894 6.70312 63.087 6.92969 64.0245 7.38281C64.962 7.83594 65.6886 8.45703 66.2042 9.24609C66.7276 10.0352 66.9894 10.9375 66.9894 11.9531H63.4972C63.4972 11.4531 63.3917 11.0156 63.1808 10.6406C62.9776 10.2578 62.6651 9.95703 62.2433 9.73828C61.8292 9.51953 61.3058 9.41016 60.673 9.41016C60.0636 9.41016 59.5558 9.50391 59.1495 9.69141C58.7433 9.87109 58.4386 10.1172 58.2355 10.4297C58.0323 10.7344 57.9308 11.0781 57.9308 11.4609C57.9308 11.75 58.0011 12.0117 58.1417 12.2461C58.2901 12.4805 58.5089 12.6992 58.798 12.9023C59.087 13.1055 59.4425 13.2969 59.8644 13.4766C60.2862 13.6562 60.7745 13.832 61.3292 14.0039C62.2589 14.2852 63.0753 14.6016 63.7784 14.9531C64.4894 15.3047 65.0831 15.6992 65.5597 16.1367C66.0362 16.5742 66.3956 17.0703 66.6378 17.625C66.88 18.1797 67.0011 18.8086 67.0011 19.5117C67.0011 20.2539 66.8566 20.918 66.5675 21.5039C66.2784 22.0898 65.8605 22.5859 65.3136 22.9922C64.7667 23.3984 64.1144 23.707 63.3566 23.918C62.5987 24.1289 61.7511 24.2344 60.8136 24.2344C59.9698 24.2344 59.1378 24.125 58.3175 23.9062C57.4972 23.6797 56.7511 23.3398 56.0792 22.8867C55.4151 22.4336 54.8839 21.8555 54.4855 21.1523C54.087 20.4492 53.8878 19.6172 53.8878 18.6562H57.4151C57.4151 19.1875 57.4972 19.6367 57.6612 20.0039C57.8253 20.3711 58.0558 20.668 58.3526 20.8945C58.6573 21.1211 59.0167 21.2852 59.4308 21.3867C59.8526 21.4883 60.3136 21.5391 60.8136 21.5391C61.423 21.5391 61.923 21.4531 62.3136 21.2812C62.712 21.1094 63.005 20.8711 63.1925 20.5664C63.3878 20.2617 63.4855 19.918 63.4855 19.5352ZM72.5558 13.9453V24H69.1691V11.3203H72.3448L72.5558 13.9453ZM72.087 17.2148H71.1495C71.1495 16.332 71.255 15.5195 71.4659 14.7773C71.6847 14.0273 72.0011 13.3789 72.4151 12.832C72.837 12.2773 73.3566 11.8477 73.9737 11.543C74.5909 11.2383 75.3058 11.0859 76.1183 11.0859C76.6808 11.0859 77.1964 11.1719 77.6651 11.3438C78.1339 11.5078 78.5362 11.7695 78.8722 12.1289C79.2159 12.4805 79.4816 12.9414 79.6691 13.5117C79.8566 14.0742 79.9503 14.75 79.9503 15.5391V24H76.5753V15.9141C76.5753 15.3359 76.4972 14.8906 76.3409 14.5781C76.1847 14.2656 75.962 14.0469 75.673 13.9219C75.3917 13.7969 75.0519 13.7344 74.6534 13.7344C74.2159 13.7344 73.8331 13.8242 73.505 14.0039C73.1847 14.1836 72.9191 14.4336 72.7081 14.7539C72.4972 15.0664 72.3409 15.4336 72.2394 15.8555C72.1378 16.2773 72.087 16.7305 72.087 17.2148ZM79.6339 16.8281L78.4269 16.9805C78.4269 16.1523 78.5284 15.3828 78.7316 14.6719C78.9425 13.9609 79.2511 13.3359 79.6573 12.7969C80.0714 12.2578 80.5831 11.8398 81.1925 11.543C81.8019 11.2383 82.505 11.0859 83.3019 11.0859C83.9112 11.0859 84.4659 11.1758 84.9659 11.3555C85.4659 11.5273 85.8917 11.8047 86.2433 12.1875C86.6026 12.5625 86.8761 13.0547 87.0636 13.6641C87.2589 14.2734 87.3566 15.0195 87.3566 15.9023V24H83.9698V15.9023C83.9698 15.3164 83.8917 14.8711 83.7355 14.5664C83.587 14.2539 83.3683 14.0391 83.0792 13.9219C82.798 13.7969 82.462 13.7344 82.0714 13.7344C81.6651 13.7344 81.3097 13.8164 81.005 13.9805C80.7003 14.1367 80.4464 14.3555 80.2433 14.6367C80.0401 14.918 79.8878 15.2461 79.7862 15.6211C79.6847 15.9883 79.6339 16.3906 79.6339 16.8281ZM96.8136 21.1406V15.4922C96.8136 15.0859 96.7472 14.7383 96.6144 14.4492C96.4816 14.1523 96.2745 13.9219 95.9933 13.7578C95.7198 13.5938 95.3644 13.5117 94.9269 13.5117C94.5519 13.5117 94.2276 13.5781 93.9542 13.7109C93.6808 13.8359 93.4698 14.0195 93.3214 14.2617C93.173 14.4961 93.0987 14.7734 93.0987 15.0938H89.7237C89.7237 14.5547 89.8487 14.043 90.0987 13.5586C90.3487 13.0742 90.712 12.6484 91.1886 12.2812C91.6651 11.9062 92.2316 11.6133 92.8878 11.4023C93.5519 11.1914 94.2941 11.0859 95.1144 11.0859C96.0987 11.0859 96.9737 11.25 97.7394 11.5781C98.505 11.9062 99.1066 12.3984 99.5441 13.0547C99.9894 13.7109 100.212 14.5312 100.212 15.5156V20.9414C100.212 21.6367 100.255 22.207 100.341 22.6523C100.427 23.0898 100.552 23.4727 100.716 23.8008V24H97.3058C97.1417 23.6562 97.0167 23.2266 96.9308 22.7109C96.8526 22.1875 96.8136 21.6641 96.8136 21.1406ZM97.2589 16.2773L97.2823 18.1875H95.3956C94.9503 18.1875 94.5636 18.2383 94.2355 18.3398C93.9073 18.4414 93.6378 18.5859 93.4269 18.7734C93.2159 18.9531 93.0597 19.1641 92.9581 19.4062C92.8644 19.6484 92.8175 19.9141 92.8175 20.2031C92.8175 20.4922 92.8839 20.7539 93.0167 20.9883C93.1495 21.2148 93.3409 21.3945 93.5909 21.5273C93.8409 21.6523 94.1339 21.7148 94.4698 21.7148C94.9776 21.7148 95.4191 21.6133 95.7941 21.4102C96.1691 21.207 96.4581 20.957 96.6612 20.6602C96.8722 20.3633 96.9816 20.082 96.9894 19.8164L97.88 21.2461C97.755 21.5664 97.5831 21.8984 97.3644 22.2422C97.1534 22.5859 96.8839 22.9102 96.5558 23.2148C96.2276 23.5117 95.8331 23.7578 95.3722 23.9531C94.9112 24.1406 94.3644 24.2344 93.7316 24.2344C92.9269 24.2344 92.1964 24.0742 91.5401 23.7539C90.8917 23.4258 90.3761 22.9766 89.9933 22.4062C89.6183 21.8281 89.4308 21.1719 89.4308 20.4375C89.4308 19.7734 89.5558 19.1836 89.8058 18.668C90.0558 18.1523 90.423 17.7188 90.9073 17.3672C91.3995 17.0078 92.0128 16.7383 92.7472 16.5586C93.4816 16.3711 94.3331 16.2773 95.3019 16.2773H97.2589ZM106.189 14.0859V24H102.814V11.3203H105.989L106.189 14.0859ZM110.009 11.2383L109.95 14.3672C109.786 14.3438 109.587 14.3242 109.353 14.3086C109.126 14.2852 108.919 14.2734 108.732 14.2734C108.255 14.2734 107.841 14.3359 107.489 14.4609C107.146 14.5781 106.857 14.7539 106.622 14.9883C106.396 15.2227 106.224 15.5078 106.107 15.8438C105.997 16.1797 105.935 16.5625 105.919 16.9922L105.239 16.7812C105.239 15.9609 105.321 15.207 105.485 14.5195C105.65 13.8242 105.888 13.2188 106.2 12.7031C106.521 12.1875 106.911 11.7891 107.372 11.5078C107.833 11.2266 108.36 11.0859 108.954 11.0859C109.142 11.0859 109.333 11.1016 109.528 11.1328C109.724 11.1562 109.884 11.1914 110.009 11.2383ZM118.4 11.3203V13.7109H111.017V11.3203H118.4ZM112.845 8.19141H116.22V20.1797C116.22 20.5469 116.267 20.8281 116.36 21.0234C116.462 21.2188 116.61 21.3555 116.806 21.4336C117.001 21.5039 117.247 21.5391 117.544 21.5391C117.755 21.5391 117.942 21.5312 118.107 21.5156C118.278 21.4922 118.423 21.4688 118.54 21.4453L118.552 23.9297C118.263 24.0234 117.95 24.0977 117.614 24.1523C117.278 24.207 116.907 24.2344 116.501 24.2344C115.759 24.2344 115.11 24.1133 114.556 23.8711C114.009 23.6211 113.587 23.2227 113.29 22.6758C112.993 22.1289 112.845 21.4102 112.845 20.5195V8.19141ZM124.048 6.9375V24H120.532V6.9375H124.048ZM130.845 14.2266V16.9688H123.087V14.2266H130.845ZM131.665 6.9375V9.69141H123.087V6.9375H131.665ZM137.056 11.3203V24H133.669V11.3203H137.056ZM133.458 8.01562C133.458 7.52344 133.63 7.11719 133.974 6.79688C134.317 6.47656 134.778 6.31641 135.357 6.31641C135.927 6.31641 136.384 6.47656 136.728 6.79688C137.079 7.11719 137.255 7.52344 137.255 8.01562C137.255 8.50781 137.079 8.91406 136.728 9.23438C136.384 9.55469 135.927 9.71484 135.357 9.71484C134.778 9.71484 134.317 9.55469 133.974 9.23438C133.63 8.91406 133.458 8.50781 133.458 8.01562ZM143.15 14.0273V24H139.775V11.3203H142.939L143.15 14.0273ZM142.657 17.2148H141.743C141.743 16.2773 141.864 15.4336 142.107 14.6836C142.349 13.9258 142.689 13.2812 143.126 12.75C143.564 12.2109 144.083 11.8008 144.685 11.5195C145.294 11.2305 145.974 11.0859 146.724 11.0859C147.317 11.0859 147.86 11.1719 148.353 11.3438C148.845 11.5156 149.267 11.7891 149.618 12.1641C149.978 12.5391 150.251 13.0352 150.439 13.6523C150.634 14.2695 150.732 15.0234 150.732 15.9141V24H147.333V15.9023C147.333 15.3398 147.255 14.9023 147.099 14.5898C146.942 14.2773 146.712 14.0586 146.407 13.9336C146.11 13.8008 145.743 13.7344 145.306 13.7344C144.853 13.7344 144.458 13.8242 144.122 14.0039C143.794 14.1836 143.521 14.4336 143.302 14.7539C143.091 15.0664 142.931 15.4336 142.821 15.8555C142.712 16.2773 142.657 16.7305 142.657 17.2148ZM160.786 21.2344V6H164.185V24H161.126L160.786 21.2344ZM152.771 17.8125V17.5664C152.771 16.5977 152.88 15.7188 153.099 14.9297C153.317 14.1328 153.638 13.4492 154.06 12.8789C154.482 12.3086 155.001 11.8672 155.618 11.5547C156.235 11.2422 156.939 11.0859 157.728 11.0859C158.47 11.0859 159.118 11.2422 159.673 11.5547C160.235 11.8672 160.712 12.3125 161.103 12.8906C161.501 13.4609 161.821 14.1367 162.064 14.918C162.306 15.6914 162.482 16.5391 162.591 17.4609V18C162.482 18.8828 162.306 19.7031 162.064 20.4609C161.821 21.2188 161.501 21.8828 161.103 22.4531C160.712 23.0156 160.235 23.4531 159.673 23.7656C159.11 24.0781 158.454 24.2344 157.704 24.2344C156.915 24.2344 156.212 24.0742 155.595 23.7539C154.985 23.4336 154.47 22.9844 154.048 22.4062C153.634 21.8281 153.317 21.1484 153.099 20.3672C152.88 19.5859 152.771 18.7344 152.771 17.8125ZM156.146 17.5664V17.8125C156.146 18.3359 156.185 18.8242 156.263 19.2773C156.349 19.7305 156.485 20.1328 156.673 20.4844C156.868 20.8281 157.118 21.0977 157.423 21.293C157.735 21.4805 158.114 21.5742 158.56 21.5742C159.138 21.5742 159.614 21.4453 159.989 21.1875C160.364 20.9219 160.65 20.5586 160.845 20.0977C161.048 19.6367 161.165 19.1055 161.196 18.5039V16.9688C161.173 16.4766 161.103 16.0352 160.985 15.6445C160.876 15.2461 160.712 14.9062 160.493 14.625C160.282 14.3438 160.017 14.125 159.696 13.9688C159.384 13.8125 159.013 13.7344 158.583 13.7344C158.146 13.7344 157.771 13.8359 157.458 14.0391C157.146 14.2344 156.892 14.5039 156.696 14.8477C156.509 15.1914 156.368 15.5977 156.275 16.0664C156.189 16.5273 156.146 17.0273 156.146 17.5664ZM172.657 24.2344C171.673 24.2344 170.79 24.0781 170.009 23.7656C169.228 23.4453 168.564 23.0039 168.017 22.4414C167.478 21.8789 167.064 21.2266 166.775 20.4844C166.485 19.7344 166.341 18.9375 166.341 18.0938V17.625C166.341 16.6641 166.478 15.7852 166.751 14.9883C167.025 14.1914 167.415 13.5 167.923 12.9141C168.439 12.3281 169.064 11.8789 169.798 11.5664C170.532 11.2461 171.36 11.0859 172.282 11.0859C173.181 11.0859 173.978 11.2344 174.673 11.5312C175.368 11.8281 175.95 12.25 176.419 12.7969C176.896 13.3438 177.255 14 177.497 14.7656C177.739 15.5234 177.86 16.3672 177.86 17.2969V18.7031H167.782V16.4531H174.544V16.1953C174.544 15.7266 174.458 15.3086 174.286 14.9414C174.122 14.5664 173.872 14.2695 173.536 14.0508C173.2 13.832 172.771 13.7227 172.247 13.7227C171.802 13.7227 171.419 13.8203 171.099 14.0156C170.778 14.2109 170.517 14.4844 170.314 14.8359C170.118 15.1875 169.97 15.6016 169.868 16.0781C169.775 16.5469 169.728 17.0625 169.728 17.625V18.0938C169.728 18.6016 169.798 19.0703 169.939 19.5C170.087 19.9297 170.294 20.3008 170.56 20.6133C170.833 20.9258 171.161 21.168 171.544 21.3398C171.935 21.5117 172.376 21.5977 172.868 21.5977C173.478 21.5977 174.044 21.4805 174.567 21.2461C175.099 21.0039 175.556 20.6406 175.939 20.1562L177.579 21.9375C177.314 22.3203 176.95 22.6875 176.489 23.0391C176.036 23.3906 175.489 23.6797 174.849 23.9062C174.208 24.125 173.478 24.2344 172.657 24.2344ZM183.157 14.0859V24H179.782V11.3203H182.958L183.157 14.0859ZM186.978 11.2383L186.919 14.3672C186.755 14.3438 186.556 14.3242 186.321 14.3086C186.095 14.2852 185.888 14.2734 185.7 14.2734C185.224 14.2734 184.81 14.3359 184.458 14.4609C184.114 14.5781 183.825 14.7539 183.591 14.9883C183.364 15.2227 183.192 15.5078 183.075 15.8438C182.966 16.1797 182.903 16.5625 182.888 16.9922L182.208 16.7812C182.208 15.9609 182.29 15.207 182.454 14.5195C182.618 13.8242 182.857 13.2188 183.169 12.7031C183.489 12.1875 183.88 11.7891 184.341 11.5078C184.802 11.2266 185.329 11.0859 185.923 11.0859C186.11 11.0859 186.302 11.1016 186.497 11.1328C186.692 11.1562 186.853 11.1914 186.978 11.2383Z" fill="#A2A9B0"/>
</svg>
