<svg width="200" height="32" viewBox="0 0 200 32" fill="none" xmlns="http://www.w3.org/2000/svg">
<path fill-rule="evenodd" clip-rule="evenodd" d="M49.5 32C58.3366 32 65.5 24.8366 65.5 16C65.5 7.16345 58.3366 0 49.5 0C40.6634 0 33.5 7.16345 33.5 16C33.5 24.8366 40.6634 32 49.5 32ZM54.4915 7.45348C54.7344 6.59044 53.8969 6.08011 53.132 6.62504L42.4545 14.2317C41.625 14.8226 41.7554 16 42.6505 16H45.4622V15.9782H50.942L46.477 17.5537L44.5086 24.5466C44.2656 25.4096 45.103 25.9199 45.868 25.375L56.5455 17.7684C57.3751 17.1774 57.2445 16 56.3495 16H52.0857L54.4915 7.45348Z" fill="#A2A9B0"/>
<path d="M87.3633 21.2578V24H75.2695V21.2578H87.3633ZM87.1875 8.89453L76.8281 24H74.3555V21.9844L84.7969 6.9375H87.1875V8.89453ZM85.9805 6.9375V9.69141H74.3672V6.9375H85.9805ZM88.5938 17.7891V17.543C88.5938 16.6133 88.7266 15.7578 88.9922 14.9766C89.2578 14.1875 89.6445 13.5039 90.1524 12.9258C90.6602 12.3477 91.2852 11.8984 92.0274 11.5781C92.7695 11.25 93.6211 11.0859 94.582 11.0859C95.543 11.0859 96.3985 11.25 97.1485 11.5781C97.8985 11.8984 98.5274 12.3477 99.0352 12.9258C99.5508 13.5039 99.9414 14.1875 100.207 14.9766C100.473 15.7578 100.605 16.6133 100.605 17.543V17.7891C100.605 18.7109 100.473 19.5664 100.207 20.3555C99.9414 21.1367 99.5508 21.8203 99.0352 22.4062C98.5274 22.9844 97.9024 23.4336 97.1602 23.7539C96.418 24.0742 95.5664 24.2344 94.6055 24.2344C93.6445 24.2344 92.7891 24.0742 92.0391 23.7539C91.2969 23.4336 90.668 22.9844 90.1524 22.4062C89.6445 21.8203 89.2578 21.1367 88.9922 20.3555C88.7266 19.5664 88.5938 18.7109 88.5938 17.7891ZM91.9688 17.543V17.7891C91.9688 18.3203 92.0156 18.8164 92.1094 19.2773C92.2031 19.7383 92.3516 20.1445 92.5547 20.4961C92.7656 20.8398 93.0391 21.1094 93.375 21.3047C93.711 21.5 94.1211 21.5977 94.6055 21.5977C95.0742 21.5977 95.4766 21.5 95.8125 21.3047C96.1485 21.1094 96.418 20.8398 96.6211 20.4961C96.8242 20.1445 96.9727 19.7383 97.0664 19.2773C97.168 18.8164 97.2188 18.3203 97.2188 17.7891V17.543C97.2188 17.0273 97.168 16.543 97.0664 16.0898C96.9727 15.6289 96.8203 15.2227 96.6094 14.8711C96.4063 14.5117 96.1367 14.2305 95.8008 14.0273C95.4649 13.8242 95.0586 13.7227 94.582 13.7227C94.1055 13.7227 93.6992 13.8242 93.3633 14.0273C93.0352 14.2305 92.7656 14.5117 92.5547 14.8711C92.3516 15.2227 92.2031 15.6289 92.1094 16.0898C92.0156 16.543 91.9688 17.0273 91.9688 17.543ZM102.141 17.7891V17.543C102.141 16.6133 102.273 15.7578 102.539 14.9766C102.805 14.1875 103.191 13.5039 103.699 12.9258C104.207 12.3477 104.832 11.8984 105.574 11.5781C106.316 11.25 107.168 11.0859 108.129 11.0859C109.09 11.0859 109.945 11.25 110.695 11.5781C111.445 11.8984 112.074 12.3477 112.582 12.9258C113.098 13.5039 113.488 14.1875 113.754 14.9766C114.02 15.7578 114.152 16.6133 114.152 17.543V17.7891C114.152 18.7109 114.02 19.5664 113.754 20.3555C113.488 21.1367 113.098 21.8203 112.582 22.4062C112.074 22.9844 111.449 23.4336 110.707 23.7539C109.965 24.0742 109.113 24.2344 108.152 24.2344C107.191 24.2344 106.336 24.0742 105.586 23.7539C104.844 23.4336 104.215 22.9844 103.699 22.4062C103.191 21.8203 102.805 21.1367 102.539 20.3555C102.273 19.5664 102.141 18.7109 102.141 17.7891ZM105.516 17.543V17.7891C105.516 18.3203 105.563 18.8164 105.656 19.2773C105.75 19.7383 105.898 20.1445 106.102 20.4961C106.313 20.8398 106.586 21.1094 106.922 21.3047C107.258 21.5 107.668 21.5977 108.152 21.5977C108.621 21.5977 109.023 21.5 109.359 21.3047C109.695 21.1094 109.965 20.8398 110.168 20.4961C110.371 20.1445 110.52 19.7383 110.613 19.2773C110.715 18.8164 110.766 18.3203 110.766 17.7891V17.543C110.766 17.0273 110.715 16.543 110.613 16.0898C110.52 15.6289 110.367 15.2227 110.156 14.8711C109.953 14.5117 109.684 14.2305 109.348 14.0273C109.012 13.8242 108.605 13.7227 108.129 13.7227C107.652 13.7227 107.246 13.8242 106.91 14.0273C106.582 14.2305 106.313 14.5117 106.102 14.8711C105.898 15.2227 105.75 15.6289 105.656 16.0898C105.563 16.543 105.516 17.0273 105.516 17.543ZM119.602 13.9453V24H116.215V11.3203H119.391L119.602 13.9453ZM119.133 17.2148H118.195C118.195 16.332 118.301 15.5195 118.512 14.7773C118.73 14.0273 119.047 13.3789 119.461 12.832C119.883 12.2773 120.402 11.8477 121.02 11.543C121.637 11.2383 122.352 11.0859 123.164 11.0859C123.727 11.0859 124.242 11.1719 124.711 11.3438C125.18 11.5078 125.582 11.7695 125.918 12.1289C126.262 12.4805 126.527 12.9414 126.715 13.5117C126.902 14.0742 126.996 14.75 126.996 15.5391V24H123.621V15.9141C123.621 15.3359 123.543 14.8906 123.387 14.5781C123.23 14.2656 123.008 14.0469 122.719 13.9219C122.438 13.7969 122.098 13.7344 121.699 13.7344C121.262 13.7344 120.879 13.8242 120.551 14.0039C120.23 14.1836 119.965 14.4336 119.754 14.7539C119.543 15.0664 119.387 15.4336 119.285 15.8555C119.184 16.2773 119.133 16.7305 119.133 17.2148ZM126.68 16.8281L125.473 16.9805C125.473 16.1523 125.574 15.3828 125.777 14.6719C125.988 13.9609 126.297 13.3359 126.703 12.7969C127.117 12.2578 127.629 11.8398 128.238 11.543C128.848 11.2383 129.551 11.0859 130.348 11.0859C130.957 11.0859 131.512 11.1758 132.012 11.3555C132.512 11.5273 132.938 11.8047 133.289 12.1875C133.648 12.5625 133.922 13.0547 134.109 13.6641C134.305 14.2734 134.402 15.0195 134.402 15.9023V24H131.016V15.9023C131.016 15.3164 130.938 14.8711 130.781 14.5664C130.633 14.2539 130.414 14.0391 130.125 13.9219C129.844 13.7969 129.508 13.7344 129.117 13.7344C128.711 13.7344 128.355 13.8164 128.051 13.9805C127.746 14.1367 127.492 14.3555 127.289 14.6367C127.086 14.918 126.934 15.2461 126.832 15.6211C126.73 15.9883 126.68 16.3906 126.68 16.8281ZM142.852 24.2344C141.867 24.2344 140.984 24.0781 140.203 23.7656C139.422 23.4453 138.758 23.0039 138.211 22.4414C137.672 21.8789 137.258 21.2266 136.969 20.4844C136.68 19.7344 136.535 18.9375 136.535 18.0938V17.625C136.535 16.6641 136.672 15.7852 136.945 14.9883C137.219 14.1914 137.609 13.5 138.117 12.9141C138.633 12.3281 139.258 11.8789 139.992 11.5664C140.727 11.2461 141.555 11.0859 142.477 11.0859C143.375 11.0859 144.172 11.2344 144.867 11.5312C145.563 11.8281 146.145 12.25 146.613 12.7969C147.09 13.3438 147.449 14 147.691 14.7656C147.934 15.5234 148.055 16.3672 148.055 17.2969V18.7031H137.977V16.4531H144.738V16.1953C144.738 15.7266 144.652 15.3086 144.48 14.9414C144.316 14.5664 144.066 14.2695 143.73 14.0508C143.395 13.832 142.965 13.7227 142.441 13.7227C141.996 13.7227 141.613 13.8203 141.293 14.0156C140.973 14.2109 140.711 14.4844 140.508 14.8359C140.313 15.1875 140.164 15.6016 140.063 16.0781C139.969 16.5469 139.922 17.0625 139.922 17.625V18.0938C139.922 18.6016 139.992 19.0703 140.133 19.5C140.281 19.9297 140.488 20.3008 140.754 20.6133C141.027 20.9258 141.355 21.168 141.738 21.3398C142.129 21.5117 142.57 21.5977 143.063 21.5977C143.672 21.5977 144.238 21.4805 144.762 21.2461C145.293 21.0039 145.75 20.6406 146.133 20.1562L147.773 21.9375C147.508 22.3203 147.145 22.6875 146.684 23.0391C146.23 23.3906 145.684 23.6797 145.043 23.9062C144.402 24.125 143.672 24.2344 142.852 24.2344ZM153.352 14.0859V24H149.977V11.3203H153.152L153.352 14.0859ZM157.172 11.2383L157.113 14.3672C156.949 14.3438 156.75 14.3242 156.516 14.3086C156.289 14.2852 156.082 14.2734 155.895 14.2734C155.418 14.2734 155.004 14.3359 154.652 14.4609C154.309 14.5781 154.02 14.7539 153.785 14.9883C153.559 15.2227 153.387 15.5078 153.27 15.8438C153.16 16.1797 153.098 16.5625 153.082 16.9922L152.402 16.7812C152.402 15.9609 152.484 15.207 152.648 14.5195C152.813 13.8242 153.051 13.2188 153.363 12.7031C153.684 12.1875 154.074 11.7891 154.535 11.5078C154.996 11.2266 155.523 11.0859 156.117 11.0859C156.305 11.0859 156.496 11.1016 156.691 11.1328C156.887 11.1562 157.047 11.1914 157.172 11.2383ZM162.141 14.0859V24H158.766V11.3203H161.941L162.141 14.0859ZM165.961 11.2383L165.902 14.3672C165.738 14.3438 165.539 14.3242 165.305 14.3086C165.078 14.2852 164.871 14.2734 164.684 14.2734C164.207 14.2734 163.793 14.3359 163.441 14.4609C163.098 14.5781 162.809 14.7539 162.574 14.9883C162.348 15.2227 162.176 15.5078 162.059 15.8438C161.949 16.1797 161.887 16.5625 161.871 16.9922L161.191 16.7812C161.191 15.9609 161.273 15.207 161.438 14.5195C161.602 13.8242 161.84 13.2188 162.152 12.7031C162.473 12.1875 162.863 11.7891 163.324 11.5078C163.785 11.2266 164.313 11.0859 164.906 11.0859C165.094 11.0859 165.285 11.1016 165.48 11.1328C165.676 11.1562 165.836 11.1914 165.961 11.2383Z" fill="#A2A9B0"/>
</svg>
