<svg width="200" height="32" viewBox="0 0 200 32" fill="none" xmlns="http://www.w3.org/2000/svg">
<path d="M54.503 32H67.4208L35.4209 0H22.5031L54.503 32Z" fill="#A2A9B0"/>
<path d="M42.0574 1.63716e-06L72.9048 30.8474V0H64.5569V9.73909L54.8178 0L42.0574 1.63716e-06Z" fill="#A2A9B0"/>
<path d="M17.0952 1.07129V31.9999H25.443V22.2607L35.1821 31.9999H48.0239L17.0952 1.07129Z" fill="#A2A9B0"/>
<path d="M89.3657 9.85547L84.7251 24H80.9868L87.3267 6.9375H89.7056L89.3657 9.85547ZM93.2212 24L88.5688 9.85547L88.1938 6.9375H90.5962L96.9712 24H93.2212ZM93.0103 17.6484V20.4023H83.9985V17.6484H93.0103ZM101.717 14.0859V24H98.3423V11.3203H101.518L101.717 14.0859ZM105.538 11.2383L105.479 14.3672C105.315 14.3438 105.116 14.3242 104.881 14.3086C104.655 14.2852 104.448 14.2734 104.26 14.2734C103.784 14.2734 103.37 14.3359 103.018 14.4609C102.674 14.5781 102.385 14.7539 102.151 14.9883C101.924 15.2227 101.752 15.5078 101.635 15.8438C101.526 16.1797 101.463 16.5625 101.448 16.9922L100.768 16.7812C100.768 15.9609 100.85 15.207 101.014 14.5195C101.178 13.8242 101.417 13.2188 101.729 12.7031C102.049 12.1875 102.44 11.7891 102.901 11.5078C103.362 11.2266 103.889 11.0859 104.483 11.0859C104.67 11.0859 104.862 11.1016 105.057 11.1328C105.252 11.1562 105.413 11.1914 105.538 11.2383ZM113.928 11.3203V13.7109H106.545V11.3203H113.928ZM108.374 8.19141H111.749V20.1797C111.749 20.5469 111.795 20.8281 111.889 21.0234C111.991 21.2188 112.139 21.3555 112.334 21.4336C112.53 21.5039 112.776 21.5391 113.073 21.5391C113.284 21.5391 113.471 21.5312 113.635 21.5156C113.807 21.4922 113.952 21.4688 114.069 21.4453L114.081 23.9297C113.792 24.0234 113.479 24.0977 113.143 24.1523C112.807 24.207 112.436 24.2344 112.03 24.2344C111.288 24.2344 110.639 24.1133 110.084 23.8711C109.538 23.6211 109.116 23.2227 108.819 22.6758C108.522 22.1289 108.374 21.4102 108.374 20.5195V8.19141ZM122.213 20.4375L126.233 6.9375H130.147L124.206 24H121.627L122.213 20.4375ZM118.51 6.9375L122.518 20.4375L123.127 24H120.526L114.62 6.9375H118.51ZM136.85 24.2344C135.866 24.2344 134.983 24.0781 134.202 23.7656C133.42 23.4453 132.756 23.0039 132.209 22.4414C131.67 21.8789 131.256 21.2266 130.967 20.4844C130.678 19.7344 130.534 18.9375 130.534 18.0938V17.625C130.534 16.6641 130.67 15.7852 130.944 14.9883C131.217 14.1914 131.608 13.5 132.116 12.9141C132.631 12.3281 133.256 11.8789 133.991 11.5664C134.725 11.2461 135.553 11.0859 136.475 11.0859C137.374 11.0859 138.17 11.2344 138.866 11.5312C139.561 11.8281 140.143 12.25 140.612 12.7969C141.088 13.3438 141.448 14 141.69 14.7656C141.932 15.5234 142.053 16.3672 142.053 17.2969V18.7031H131.975V16.4531H138.737V16.1953C138.737 15.7266 138.651 15.3086 138.479 14.9414C138.315 14.5664 138.065 14.2695 137.729 14.0508C137.393 13.832 136.963 13.7227 136.44 13.7227C135.995 13.7227 135.612 13.8203 135.292 14.0156C134.971 14.2109 134.709 14.4844 134.506 14.8359C134.311 15.1875 134.163 15.6016 134.061 16.0781C133.967 16.5469 133.92 17.0625 133.92 17.625V18.0938C133.92 18.6016 133.991 19.0703 134.131 19.5C134.28 19.9297 134.487 20.3008 134.752 20.6133C135.026 20.9258 135.354 21.168 135.737 21.3398C136.127 21.5117 136.569 21.5977 137.061 21.5977C137.67 21.5977 138.237 21.4805 138.76 21.2461C139.292 21.0039 139.749 20.6406 140.131 20.1562L141.772 21.9375C141.506 22.3203 141.143 22.6875 140.682 23.0391C140.229 23.3906 139.682 23.6797 139.042 23.9062C138.401 24.125 137.67 24.2344 136.85 24.2344ZM147.28 14.0273V24H143.905V11.3203H147.069L147.28 14.0273ZM146.788 17.2148H145.874C145.874 16.2773 145.995 15.4336 146.237 14.6836C146.479 13.9258 146.819 13.2812 147.256 12.75C147.694 12.2109 148.213 11.8008 148.815 11.5195C149.424 11.2305 150.104 11.0859 150.854 11.0859C151.448 11.0859 151.991 11.1719 152.483 11.3438C152.975 11.5156 153.397 11.7891 153.749 12.1641C154.108 12.5391 154.381 13.0352 154.569 13.6523C154.764 14.2695 154.862 15.0234 154.862 15.9141V24H151.463V15.9023C151.463 15.3398 151.385 14.9023 151.229 14.5898C151.073 14.2773 150.842 14.0586 150.538 13.9336C150.241 13.8008 149.874 13.7344 149.436 13.7344C148.983 13.7344 148.588 13.8242 148.252 14.0039C147.924 14.1836 147.651 14.4336 147.432 14.7539C147.221 15.0664 147.061 15.4336 146.952 15.8555C146.842 16.2773 146.788 16.7305 146.788 17.2148ZM164.928 20.9648V11.3203H168.303V24H165.127L164.928 20.9648ZM165.303 18.3633L166.299 18.3398C166.299 19.1836 166.202 19.9688 166.006 20.6953C165.811 21.4141 165.518 22.0391 165.127 22.5703C164.737 23.0938 164.245 23.5039 163.651 23.8008C163.057 24.0898 162.358 24.2344 161.553 24.2344C160.936 24.2344 160.366 24.1484 159.842 23.9766C159.327 23.7969 158.881 23.5195 158.506 23.1445C158.139 22.7617 157.85 22.2734 157.639 21.6797C157.436 21.0781 157.334 20.3555 157.334 19.5117V11.3203H160.709V19.5352C160.709 19.9102 160.752 20.2266 160.838 20.4844C160.932 20.7422 161.061 20.9531 161.225 21.1172C161.389 21.2812 161.581 21.3984 161.799 21.4688C162.026 21.5391 162.276 21.5742 162.549 21.5742C163.245 21.5742 163.792 21.4336 164.19 21.1523C164.596 20.8711 164.881 20.4883 165.045 20.0039C165.217 19.5117 165.303 18.9648 165.303 18.3633ZM176.717 24.2344C175.733 24.2344 174.85 24.0781 174.069 23.7656C173.288 23.4453 172.624 23.0039 172.077 22.4414C171.538 21.8789 171.124 21.2266 170.834 20.4844C170.545 19.7344 170.401 18.9375 170.401 18.0938V17.625C170.401 16.6641 170.538 15.7852 170.811 14.9883C171.084 14.1914 171.475 13.5 171.983 12.9141C172.499 12.3281 173.124 11.8789 173.858 11.5664C174.592 11.2461 175.42 11.0859 176.342 11.0859C177.241 11.0859 178.038 11.2344 178.733 11.5312C179.428 11.8281 180.01 12.25 180.479 12.7969C180.956 13.3438 181.315 14 181.557 14.7656C181.799 15.5234 181.92 16.3672 181.92 17.2969V18.7031H171.842V16.4531H178.604V16.1953C178.604 15.7266 178.518 15.3086 178.346 14.9414C178.182 14.5664 177.932 14.2695 177.596 14.0508C177.26 13.832 176.831 13.7227 176.307 13.7227C175.862 13.7227 175.479 13.8203 175.159 14.0156C174.838 14.2109 174.577 14.4844 174.374 14.8359C174.178 15.1875 174.03 15.6016 173.928 16.0781C173.834 16.5469 173.788 17.0625 173.788 17.625V18.0938C173.788 18.6016 173.858 19.0703 173.999 19.5C174.147 19.9297 174.354 20.3008 174.62 20.6133C174.893 20.9258 175.221 21.168 175.604 21.3398C175.995 21.5117 176.436 21.5977 176.928 21.5977C177.538 21.5977 178.104 21.4805 178.627 21.2461C179.159 21.0039 179.616 20.6406 179.999 20.1562L181.639 21.9375C181.374 22.3203 181.01 22.6875 180.549 23.0391C180.096 23.3906 179.549 23.6797 178.909 23.9062C178.268 24.125 177.538 24.2344 176.717 24.2344Z" fill="#A2A9B0"/>
</svg>
