<svg xmlns="http://www.w3.org/2000/svg" width="61" height="48" viewBox="0 0 61 48" fill="none"><path d="M61 24C61 37.2548 50.2548 48 37 48C23.7452 48 0.5 37.2548 0.5 24C0.5 10.7452 23.7452 0 37 0C50.2548 0 61 10.7452 61 24Z" fill="white"/><path d="M42.7071 24.7071C43.0976 24.3166 43.0976 23.6834 42.7071 23.2929L36.3431 16.9289C35.9526 16.5384 35.3195 16.5384 34.9289 16.9289C34.5384 17.3195 34.5384 17.9526 34.9289 18.3431L40.5858 24L34.9289 29.6569C34.5384 30.0474 34.5384 30.6805 34.9289 31.0711C35.3195 31.4616 35.9526 31.4616 36.3431 31.0711L42.7071 24.7071ZM20 25L42 25V23L20 23V25Z" fill="#112442"/></svg>