<?xml version="1.0" encoding="UTF-8"?>
<svg version="1.1" xmlns="http://www.w3.org/2000/svg" width="565" height="560">
<path d="M0 0 C0.8655249 0.69198486 0.8655249 0.69198486 1.74853516 1.39794922 C17.61430726 14.15061203 32.84464428 28.82330344 44.79052734 45.34179688 C46.05755165 47.07890409 47.36234537 48.78213947 48.67578125 50.484375 C91.2561932 106.21350941 108.91560556 178.88033431 100.47412109 248.1652832 C92.81955247 304.29460362 69.41844276 355.70837695 31.1875 397.58984375 C29.06733383 399.92581254 27.0030269 402.30326875 24.9375 404.6875 C21.88277995 408.12706668 18.68195558 411.17718543 15.16796875 414.140625 C12.70694592 416.25134007 10.3638151 418.46855249 8 420.6875 C-30.74324495 455.86508916 -82.44618326 477.66345568 -133.9375 484.875 C-134.79400146 484.99520508 -135.65050293 485.11541016 -136.53295898 485.23925781 C-142.70410383 486.01963553 -148.78479434 486.11976488 -155 486 C-155 486.66 -155 487.32 -155 488 C-191.2019653 488.41637225 -191.2019653 488.41637225 -205 486 C-205.77037598 485.87109375 -206.54075195 485.7421875 -207.33447266 485.609375 C-237.15604039 480.5720662 -265.7623028 472.22363948 -293 459 C-293.71816895 458.65388672 -294.43633789 458.30777344 -295.17626953 457.95117188 C-312.65739116 449.41905694 -328.94571834 438.28522985 -344 426 C-344.53044922 425.57106445 -345.06089844 425.14212891 -345.60742188 424.70019531 C-360.02110502 412.9774059 -373.77812567 399.8385005 -385 385 C-385.92516442 383.81462248 -386.85099391 382.62976386 -387.77734375 381.4453125 C-433.22860107 322.7414488 -451.49923418 249.19902022 -442.62548828 175.90673828 C-439.21798303 150.55902949 -431.86448468 126.54447759 -422 103 C-421.66387695 102.19771973 -421.32775391 101.39543945 -420.98144531 100.56884766 C-411.59608309 78.60320974 -398.23991626 58.32091016 -383 40 C-382.58588867 39.4956543 -382.17177734 38.99130859 -381.74511719 38.47167969 C-370.43937959 24.73918478 -358.12708063 11.85396208 -344 1 C-342.76082965 0.0102267 -341.52261912 -0.980749 -340.28515625 -1.97265625 C-262.53539393 -63.62276737 -153.98578956 -76.93196009 0 0 Z M-185 -25 C-186.70366937 -23.08641423 -188.35996613 -21.15466245 -190 -19.1875 C-190.49693359 -18.59582031 -190.99386719 -18.00414062 -191.50585938 -17.39453125 C-195.27269848 -12.89940443 -198.98527904 -8.36094289 -202.6875 -3.8125 C-205.72367366 -0.11985636 -208.8184997 3.52121788 -211.9140625 7.1640625 C-214.81244823 10.5805954 -217.671551 14.02504838 -220.5 17.5 C-224.24787798 22.1045358 -228.06983444 26.64019191 -231.9140625 31.1640625 C-235.55859407 35.46013044 -239.1278734 39.81368341 -242.68359375 44.18359375 C-245.27787266 47.33785192 -247.91606265 50.4520298 -250.5625 53.5625 C-253.76739191 57.33088939 -256.92687694 61.12246028 -260 65 C-263.52883403 69.45253701 -267.18229329 73.78685979 -270.86328125 78.11328125 C-273.78004513 81.54571609 -276.65693426 85.00592815 -279.5 88.5 C-283.24787798 93.1045358 -287.06983444 97.64019191 -290.9140625 102.1640625 C-293.81244823 105.5805954 -296.671551 109.02504838 -299.5 112.5 C-303.24787798 117.1045358 -307.06983444 121.64019191 -310.9140625 126.1640625 C-313.81244823 129.5805954 -316.671551 133.02504838 -319.5 136.5 C-323.24787798 141.1045358 -327.06983444 145.64019191 -330.9140625 150.1640625 C-333.81244823 153.5805954 -336.671551 157.02504838 -339.5 160.5 C-343.24787798 165.1045358 -347.06983444 169.64019191 -350.9140625 174.1640625 C-353.81244823 177.5805954 -356.671551 181.02504838 -359.5 184.5 C-363.24787798 189.1045358 -367.06983444 193.64019191 -370.9140625 198.1640625 C-373.81244823 201.5805954 -376.671551 205.02504838 -379.5 208.5 C-383.24787798 213.1045358 -387.06983444 217.64019191 -390.9140625 222.1640625 C-394.55859407 226.46013044 -398.1278734 230.81368341 -401.68359375 235.18359375 C-404.2778768 238.33785696 -406.91626821 241.45184976 -409.5625 244.5625 C-418.02032707 252.77694972 -418.02032707 252.77694972 -423 262 C-371.52 262.33 -320.04 262.66 -267 263 C-270.63 266.3 -274.26 269.6 -278 273 C-281.14876978 276.62324194 -284.10767576 280.18876024 -287 284 C-287.40605469 284.52577637 -287.81210937 285.05155273 -288.23046875 285.59326172 C-295.07424166 294.50332761 -300.40516059 303.75464733 -305 314 C-305.27827637 314.61987793 -305.55655273 315.23975586 -305.84326172 315.87841797 C-309.03196371 323.11602099 -311.57645451 330.46845771 -313.75 338.0625 C-313.94875732 338.74554199 -314.14751465 339.42858398 -314.35229492 340.13232422 C-317.58590224 351.9995106 -318.36300517 363.99943575 -318.3125 376.25 C-318.31167419 376.922659 -318.31084839 377.59531799 -318.30999756 378.2883606 C-318.27114967 392.08692523 -316.39560016 404.66857852 -313 418 C-308.71031601 413.92640084 -305.1071426 409.49431467 -301.5 404.8125 C-300.88688965 404.02077393 -300.2737793 403.22904785 -299.64208984 402.41333008 C-294.97692664 396.35317397 -290.48041271 390.18411327 -286.03491211 383.96191406 C-281.81751117 378.07846548 -277.46533629 372.30819083 -273.0625 366.5625 C-265.58266432 356.79854744 -258.26619245 346.92354283 -251 337 C-243.0012929 326.07605145 -234.91253341 315.23412005 -226.68017578 304.48486328 C-222.22629726 298.65356355 -217.92545915 292.743615 -213.7109375 286.73828125 C-211.5405753 283.69688488 -209.26942411 280.74297615 -206.9765625 277.79296875 C-206.25984375 276.86806641 -205.543125 275.94316406 -204.8046875 274.99023438 C-203.38821546 273.16887472 -201.96413165 271.3534003 -200.53125 269.54492188 C-194.74808769 262.10051785 -190.14491196 255.10583974 -190.625 245.4140625 C-191.7343167 238.27283627 -195.53771877 234.03137362 -200.90234375 229.4453125 C-205.91478904 225.99167236 -210.60324943 225.69731076 -216.55395508 225.68115234 C-217.40324585 225.67110672 -218.25253662 225.6610611 -219.12756348 225.65071106 C-221.92487941 225.61990748 -224.72209975 225.60285177 -227.51953125 225.5859375 C-229.46295492 225.56722358 -231.40637049 225.54765 -233.34977722 225.5272522 C-238.45754211 225.47594867 -243.56533333 225.43631336 -248.67321777 225.39910889 C-253.88833116 225.35905815 -259.10333514 225.30797066 -264.31835938 225.2578125 C-274.54549605 225.16107424 -284.77269452 225.07666266 -295 225 C-294.52495026 224.66692337 -294.04990051 224.33384674 -293.56045532 223.99067688 C-291.36470811 222.44979551 -289.17063129 220.90655149 -286.9765625 219.36328125 C-286.22963135 218.83963989 -285.4827002 218.31599854 -284.71313477 217.77648926 C-262.19861171 201.92592297 -241.74903483 182.65965903 -226 160 C-225.01574177 158.63403044 -224.03136525 157.2681461 -223.046875 155.90234375 C-197.0073471 119.03040633 -181.15742197 73.24010221 -180 28 C-179.97953613 27.25572754 -179.95907227 26.51145508 -179.93798828 25.74462891 C-179.69470113 15.55270682 -179.96943995 5.46863755 -180.875 -4.6875 C-180.95339111 -5.57115234 -181.03178223 -6.45480469 -181.11254883 -7.36523438 C-181.70064804 -13.33305989 -182.72268789 -19.1423877 -184 -25 C-184.33 -25 -184.66 -25 -185 -25 Z M-159 -25 C-170.60601541 34.61899584 -156.72859494 99.73692927 -123.48583984 150.30322266 C-103.82177831 179.46501966 -78.91087711 205.26749448 -49 224 C-48.34 224 -47.68 224 -47 224 C-47 224.66 -47 225.32 -47 226 C-48.08470581 225.99111755 -49.16941162 225.98223511 -50.2869873 225.9730835 C-60.52687306 225.89187295 -70.76669316 225.83197474 -81.00682831 225.79275131 C-86.27096516 225.77190795 -91.5348413 225.7436496 -96.79882812 225.69824219 C-101.88223318 225.65466865 -106.965388 225.63083844 -112.04896545 225.62049103 C-113.9849898 225.61312031 -115.92100099 225.59872702 -117.85691833 225.57707977 C-120.57613341 225.54789272 -123.29432448 225.54405036 -126.01367188 225.54589844 C-127.20482605 225.52432678 -127.20482605 225.52432678 -128.42004395 225.50231934 C-134.90233646 225.54975329 -139.97393173 227.50304779 -144.98828125 231.640625 C-149.28439439 236.86185985 -151.581023 241.70803782 -152.4375 248.4375 C-151.41958395 256.72624494 -146.70727921 263.25731121 -141.75 269.75 C-140.8384314 270.96610962 -140.8384314 270.96610962 -139.90844727 272.20678711 C-137.94979482 274.81292797 -135.97728157 277.40796972 -134 280 C-133.33790527 280.86834473 -132.67581055 281.73668945 -131.99365234 282.63134766 C-129.29597909 286.16652316 -126.59731675 289.7009237 -123.89355469 293.23144531 C-119.12493757 299.47370557 -114.5001168 305.80469195 -109.93115234 312.19384766 C-105.74578604 318.02305222 -101.42628789 323.74093987 -97.0625 329.4375 C-88.99635308 339.96718023 -81.12688479 350.63242592 -73.29101562 361.33398438 C-65.86765289 371.46598574 -58.34798433 381.51287274 -50.7043457 391.47998047 C-46.01590795 397.61194384 -41.49662955 403.83436996 -37.11328125 410.1875 C-34.95001101 413.06652879 -32.60442999 415.51872169 -30 418 C-18.66983302 377.62940504 -24.24557722 337.37002642 -44.265625 300.765625 C-47.43359251 295.14390672 -50.92488888 290.01426499 -55 285 C-55.69480469 284.10539062 -56.38960938 283.21078125 -57.10546875 282.2890625 C-62.67034857 275.2566303 -68.57336248 269.42663752 -75 263 C-23.85 262.67 27.3 262.34 80 262 C77.41328477 257.66610358 77.41328477 257.66610358 74.3984375 253.8359375 C73.9130249 253.27704834 73.4276123 252.71815918 72.92749023 252.14233398 C72.41516846 251.55911377 71.90284668 250.97589355 71.375 250.375 C70.2893809 249.12455125 69.20475394 247.8732405 68.12109375 246.62109375 C67.5885498 246.0060498 67.05600586 245.39100586 66.50732422 244.75732422 C63.6992902 241.48355861 60.99597721 238.125245 58.27734375 234.77734375 C55.71795946 231.65603633 53.11406209 228.5754997 50.5 225.5 C46.37892208 220.65045949 42.33008517 215.74839036 38.3125 210.8125 C35.73853406 207.68200088 33.12420534 204.5883659 30.5 201.5 C26.44987401 196.7308879 22.45647887 191.92087568 18.50390625 187.0703125 C10.69208052 177.49138111 2.84027163 167.94770048 -5.16748047 158.53173828 C-8.73028404 154.33671818 -12.21325575 150.08085722 -15.6875 145.8125 C-18.26146392 142.68200334 -20.87569086 139.58827539 -23.5 136.5 C-27.62101634 131.65040619 -31.66991354 126.74839194 -35.6875 121.8125 C-38.26146392 118.68200334 -40.87569086 115.58827539 -43.5 112.5 C-47.62101634 107.65040619 -51.66991354 102.74839194 -55.6875 97.8125 C-58.26146392 94.68200334 -60.87569086 91.58827539 -63.5 88.5 C-67.62101634 83.65040619 -71.66991354 78.74839194 -75.6875 73.8125 C-78.26146392 70.68200334 -80.87569086 67.58827539 -83.5 64.5 C-87.62101634 59.65040619 -91.66991354 54.74839194 -95.6875 49.8125 C-98.26146392 46.68200334 -100.87569086 43.58827539 -103.5 40.5 C-107.62101634 35.65040619 -111.66991354 30.74839194 -115.6875 25.8125 C-118.26146392 22.68200334 -120.87569086 19.58827539 -123.5 16.5 C-127.62101634 11.65040619 -131.66991354 6.74839194 -135.6875 1.8125 C-138.71604147 -1.87086125 -141.80133329 -5.50431984 -144.89208984 -9.13549805 C-148.77972048 -13.71229332 -152.56396688 -18.36537506 -156.3203125 -23.05078125 C-156.87460937 -23.69402344 -157.42890625 -24.33726563 -158 -25 C-158.33 -25 -158.66 -25 -159 -25 Z " fill="#F7982C" transform="translate(453,66)"/>
<path d="M0 0 C0.66 0 1.32 0 2 0 C1.67 0.66 1.34 1.32 1 2 C0.67 1.34 0.34 0.68 0 0 Z " fill="#1F181F" transform="translate(198,550)"/>
<path d="" fill="#333333" transform="translate(0,0)"/>
</svg>
