<?xml version="1.0" encoding="utf-8"?>
<!-- Generator: Adobe Illustrator 27.5.0, SVG Export Plug-In . SVG Version: 6.00 Build 0)  -->
<svg version="1.1" xmlns="http://www.w3.org/2000/svg" xmlns:xlink="http://www.w3.org/1999/xlink" x="0px" y="0px"
	 viewBox="0 0 2200 2200" style="enable-background:new 0 0 2200 2200;" xml:space="preserve">
<g id="background">
	<rect style="fill:#FFFFFF;" width="2200" height="2200"/>
</g>
<g id="Objects">
	<g>
		<g>
			<path d="M640.698,1079.632c32.381,32.38,70.091,57.804,112.084,75.566c43.484,18.393,89.667,27.718,137.266,27.718
				s93.781-9.325,137.266-27.718c41.993-17.762,79.703-43.186,112.084-75.566c32.38-32.38,57.804-70.091,75.565-112.084
				c18.393-43.484,27.718-89.667,27.718-137.266s-9.325-93.781-27.718-137.266c-17.762-41.993-43.186-79.704-75.565-112.084
				c-32.381-32.38-70.091-57.804-112.084-75.566c-43.484-18.393-89.667-27.718-137.266-27.718s-93.781,9.325-137.266,27.718
				c-41.993,17.762-79.703,43.186-112.084,75.566c-32.38,32.38-57.804,70.091-75.565,112.084
				c-18.393,43.484-27.718,89.667-27.718,137.266s9.325,93.781,27.718,137.266C582.895,1009.542,608.318,1047.252,640.698,1079.632z
				 M874.609,966.645c-45.629,1.069-90.39,6.884-133.994,17.379c-12.392-42.252-19.513-89.261-20.75-138.303h154.745V966.645z
				 M874.609,997.529v153.15c-38.086-6.653-73.994-37.805-102.436-89.415c-8.164-14.814-15.434-30.835-21.781-47.831
				C790.84,1003.886,832.331,998.57,874.609,997.529z M905.486,1150.679v-153.15c42.279,1.041,83.769,6.357,124.216,15.904
				c-6.347,16.996-13.617,33.017-21.781,47.831C979.48,1112.874,943.573,1144.026,905.486,1150.679z M905.486,966.645V845.722
				h154.745c-1.237,49.042-8.358,96.051-20.75,138.303C995.876,973.529,951.116,967.714,905.486,966.645z M1091.112,845.722h120.323
				c-3.006,64.054-24.684,124.7-62.428,175.63c-26.043-11.625-52.639-21.425-79.72-29.374
				C1082.373,947.08,1089.865,897.382,1091.112,845.722z M1091.112,814.844c-1.247-51.66-8.739-101.358-21.825-146.256
				c27.082-7.949,53.677-17.749,79.72-29.374c37.744,50.93,59.423,111.576,62.428,175.631H1091.112z M1060.231,814.844H905.486
				V693.92c45.63-1.069,90.39-6.884,133.994-17.379C1051.873,718.793,1058.994,765.802,1060.231,814.844z M905.486,663.036v-153.15
				c38.086,6.653,73.994,37.805,102.436,89.415c8.164,14.814,15.434,30.835,21.781,47.831
				C989.255,656.679,947.765,661.995,905.486,663.036z M874.609,509.886v153.15c-42.279-1.041-83.769-6.357-124.216-15.904
				c6.347-16.996,13.617-33.017,21.781-47.831C800.615,547.691,836.523,516.539,874.609,509.886z M874.609,693.92v120.924H719.865
				c1.237-49.042,8.358-96.051,20.75-138.303C784.219,687.036,828.98,692.851,874.609,693.92z M688.984,814.844H568.66
				c3.006-64.054,24.684-124.7,62.429-175.631c26.042,11.625,52.638,21.425,79.72,29.374
				C697.723,713.486,690.231,763.184,688.984,814.844z M688.984,845.722c1.247,51.66,8.739,101.358,21.825,146.256
				c-27.082,7.949-53.677,17.749-79.72,29.374c-37.744-50.93-59.423-111.576-62.428-175.63H688.984z M662.532,1057.799
				c-3.807-3.807-7.505-7.692-11.096-11.652c22.581-9.705,45.592-17.977,68.983-24.801c7.12,19.502,15.372,37.873,24.712,54.821
				c13.004,23.598,27.6,43.558,43.402,59.606C741.567,1120.217,698.534,1093.801,662.532,1057.799z M991.563,1135.773
				c15.802-16.048,30.398-36.008,43.402-59.606c9.34-16.948,17.592-35.319,24.712-54.821c23.391,6.824,46.402,15.096,68.983,24.801
				c-3.591,3.96-7.29,7.845-11.096,11.652C1081.561,1093.801,1038.529,1120.217,991.563,1135.773z M1117.563,602.767
				c3.806,3.806,7.505,7.692,11.096,11.652c-22.581,9.705-45.592,17.977-68.983,24.801c-7.12-19.502-15.372-37.873-24.712-54.821
				c-13.004-23.598-27.599-43.558-43.402-59.606C1038.529,540.348,1081.561,566.765,1117.563,602.767z M788.533,524.792
				c-15.802,16.048-30.397,36.008-43.402,59.606c-9.34,16.948-17.592,35.319-24.712,54.821
				c-23.391-6.824-46.402-15.096-68.983-24.801c3.591-3.96,7.29-7.845,11.096-11.652
				C698.534,566.765,741.567,540.348,788.533,524.792z"/>
			<path d="M1867.809,951.509c-38.71-38.71-90.177-60.029-144.919-60.029s-106.209,21.319-144.92,60.029
				c-17.599,17.6-31.016,36.5-39.872,56.167c-8.551,18.958-16.137,39.376-24.168,60.993c-1.983,5.339-3.975,10.697-5.987,16.048
				V274.99c0-36.348-29.587-65.919-65.955-65.919H397.858c-69.309,0-125.696,56.387-125.696,125.696v1345.354
				c0,69.31,56.387,125.696,125.696,125.696h1044.129c36.368,0,65.955-29.571,65.955-65.92v-29.803l11.477,11.477
				c3.015,3.015,6.966,4.521,10.917,4.521s7.902-1.507,10.917-4.521l90.291-90.292c8.345-8.344,12.94-19.438,12.94-31.238
				s-4.596-22.895-12.939-31.238l-69.256-69.256c-0.955-15.829,0.247-70.426,54.094-124.273
				c31.763-31.786,83.833-51.123,134.188-69.822c21.648-8.039,42.097-15.633,61.063-24.191c19.679-8.863,38.579-22.28,56.175-39.877
				c38.71-38.71,60.029-90.178,60.029-144.923C1927.838,1041.715,1906.52,990.239,1867.809,951.509z M1477.065,1739.897
				c0,19.322-15.736,35.043-35.078,35.043H397.858c-52.283,0-94.818-42.536-94.818-94.819V334.767
				c0-52.283,42.536-94.819,94.818-94.819h1044.129c19.342,0,35.078,15.72,35.078,35.042v881.33
				c-9.515,17.868-20.267,33.896-33.025,46.654c-26.41,26.41-56.072,43.458-88.163,50.669c-16.609,3.733-29.629,3.721-36.14,3.351
				l-69.206-69.206c-17.225-17.224-45.253-17.226-62.478,0l-90.292,90.292c-2.896,2.896-4.521,6.822-4.521,10.917
				s1.626,8.021,4.521,10.917l27.007,27.007H552.363c-8.526,0-15.438,6.912-15.438,15.438v130.543
				c0,8.526,6.912,15.438,15.438,15.438h675.38c8.526,0,15.438-6.912,15.438-15.438v-27.568l233.884,233.883V1739.897z
				 M1212.305,1414.458v43.006H567.802v-99.666h587.843L1212.305,1414.458z M1613.606,1600.041c0,3.553-1.383,6.893-3.896,9.404
				l-79.375,79.375l-399.824-399.823l79.375-79.375c5.187-5.187,13.625-5.185,18.81,0l381.016,381.015
				C1612.224,1593.148,1613.606,1596.488,1613.606,1600.041z M1845.975,1219.55c-14.943,14.943-30.764,26.233-47.031,33.561
				c-18.014,8.13-37.981,15.545-59.121,23.395c-53.465,19.854-108.75,40.385-145.277,76.938
				c-42.791,42.792-57.165,86.598-61.542,116.817l-183.941-183.941c30.217-4.369,74.029-18.729,116.812-61.511
				c36.574-36.575,57.126-91.892,77-145.386c7.844-21.111,15.252-41.051,23.374-59.06c7.32-16.254,18.609-32.074,33.556-47.02
				c32.878-32.878,76.591-50.985,123.086-50.985s90.207,18.107,123.083,50.982
				C1913.837,1041.237,1913.839,1151.687,1845.975,1219.55z"/>
		</g>
		<ellipse style="fill:#CECECE;" cx="1007.778" cy="1954.04" rx="666.11" ry="21.451"/>
	</g>
</g>
</svg>
