<svg id="visual" viewBox="0 0 900 600" width="900" height="600" xmlns="http://www.w3.org/2000/svg" xmlns:xlink="http://www.w3.org/1999/xlink" version="1.1"><g fill="#fe983d"><circle r="55" cx="317" cy="280"></circle><circle r="4" cx="551" cy="50"></circle><circle r="37" cx="780" cy="398"></circle><circle r="24" cx="119" cy="209"></circle><circle r="14" cx="561" cy="530"></circle><circle r="32" cx="887" cy="589"></circle><circle r="18" cx="558" cy="321"></circle><circle r="31" cx="341" cy="569"></circle><circle r="28" cx="397" cy="382"></circle><circle r="47" cx="158" cy="99"></circle><circle r="19" cx="65" cy="376"></circle><circle r="25" cx="730" cy="254"></circle><circle r="8" cx="454" cy="563"></circle><circle r="44" cx="388" cy="115"></circle><circle r="26" cx="772" cy="558"></circle><circle r="17" cx="52" cy="534"></circle><circle r="33" cx="202" cy="317"></circle><circle r="10" cx="521" cy="202"></circle><circle r="26" cx="870" cy="79"></circle><circle r="24" cx="313" cy="26"></circle><circle r="17" cx="676" cy="70"></circle><circle r="22" cx="185" cy="486"></circle><circle r="9" cx="270" cy="420"></circle><circle r="5" cx="669" cy="462"></circle><circle r="4" cx="892" cy="298"></circle><circle r="20" cx="9" cy="9"></circle><circle r="18" cx="430" cy="9"></circle></g></svg>