<svg width="64" height="64" viewBox="0 0 64 64" fill="none" xmlns="http://www.w3.org/2000/svg">
<path d="M55.1887 61.0017H3.47402C2.59034 61.0017 1.87402 60.2854 1.87402 59.4017V53.6071C1.87402 53.1829 2.04258 52.7758 2.34266 52.4758C6.45458 48.3638 11.9218 46.0993 17.7369 46.0993C22.3431 46.0993 26.7308 47.5199 30.3998 50.1544V19.45C30.3998 18.5663 31.1161 17.85 31.9998 17.85C32.8834 17.85 33.5998 18.5663 33.5998 19.45V53.6071C33.5998 54.2543 33.2099 54.8377 32.6119 55.0854C32.0141 55.3331 31.3259 55.1962 30.8684 54.7385C23.7819 47.652 12.3458 47.5013 5.07394 54.2859V57.8017H55.1887C56.0724 57.8017 56.7887 58.5181 56.7887 59.4017C56.7887 60.2853 56.0725 61.0017 55.1887 61.0017Z" fill="black"/>
<path d="M60.5257 61.0016H60.0556C59.1718 61.0016 58.4556 60.2854 58.4556 59.4016C58.4556 58.518 59.1718 57.8016 60.0556 57.8016H60.5257C61.4095 57.8016 62.1257 58.518 62.1257 59.4016C62.1257 60.2853 61.4095 61.0016 60.5257 61.0016Z" fill="black"/>
<path d="M60.526 55.2072C60.1096 55.2072 59.7006 55.0446 59.3943 54.7385C53.9973 49.3416 45.6865 47.7977 38.714 50.8968C37.9065 51.2557 36.9609 50.8919 36.602 50.0845C36.2431 49.2771 36.6069 48.3315 37.4143 47.9727C41.3927 46.2043 45.7699 45.6722 50.0732 46.4336C53.2939 47.0035 56.3011 48.2736 58.9257 50.1559V11.185C51.654 4.40049 40.2179 4.55121 33.1311 11.6375C32.5063 12.2624 31.4934 12.2623 30.8685 11.6375C23.7819 4.55113 12.3459 4.40041 5.07402 11.185V45.0427C5.07402 45.9264 4.3577 46.6427 3.47402 46.6427C2.59034 46.6427 1.87402 45.9264 1.87402 45.0427V10.5063C1.87402 10.0819 2.04258 9.67497 2.34266 9.37497C6.45474 5.26297 11.9218 2.99841 17.737 2.99841C23.0335 2.99841 28.0418 4.87729 31.9999 8.31937C35.9578 4.87753 40.9665 2.99841 46.2627 2.99841C46.2624 2.99841 46.2631 2.99841 46.2627 2.99841C52.078 2.99841 57.5451 5.26297 61.6571 9.37489C61.9571 9.67497 62.1257 10.0819 62.1257 10.5063V53.6071C62.1257 54.2543 61.7359 54.8377 61.138 55.0854C60.9401 55.1674 60.7321 55.2072 60.526 55.2072Z" fill="black"/>
<path d="M25.999 19.1499C25.7802 19.1499 25.5579 19.1048 25.3453 19.0094C25.1985 18.9436 25.049 18.8788 24.9006 18.817C24.0852 18.4766 23.7 17.5396 24.0404 16.7241C24.3807 15.9087 25.3177 15.5235 26.1332 15.8639C26.3072 15.9365 26.4825 16.0124 26.6546 16.0896C27.4609 16.4512 27.8214 17.3979 27.4598 18.2042C27.1936 18.7978 26.6101 19.1499 25.999 19.1499Z" fill="black"/>
<path d="M9.47391 19.1502C8.86287 19.1502 8.27951 18.7984 8.01319 18.2049C7.65143 17.3987 8.01167 16.4519 8.81791 16.09C12.6577 14.367 16.8947 13.7967 21.071 14.4407C21.9443 14.5754 22.5431 15.3925 22.4085 16.2658C22.2738 17.1391 21.4564 17.7379 20.5834 17.6033C17.0186 17.0536 13.4032 17.5399 10.1281 19.0095C9.91535 19.1051 9.69287 19.1502 9.47391 19.1502Z" fill="black"/>
<path d="M25.9992 30.3368C25.7802 30.3368 25.5578 30.2917 25.3451 30.1962C22.0694 28.7263 18.4534 28.2402 14.8882 28.7903C14.0149 28.9253 13.1977 28.3264 13.0629 27.4531C12.9282 26.5798 13.5268 25.7626 14.4002 25.6278C18.5771 24.9832 22.8149 25.5535 26.6551 27.2767C27.4614 27.6384 27.8217 28.5852 27.4599 29.3915C27.1936 29.985 26.6101 30.3368 25.9992 30.3368Z" fill="black"/>
<path d="M9.47391 30.337C8.86287 30.337 8.27951 29.9852 8.01319 29.3916C7.65143 28.5855 8.01167 27.6386 8.81799 27.2768C8.99167 27.1988 9.16791 27.1226 9.34175 27.05C10.1572 26.7098 11.0942 27.0951 11.4345 27.9106C11.7747 28.7261 11.3894 29.6631 10.5739 30.0033C10.426 30.065 10.276 30.13 10.128 30.1964C9.91535 30.2919 9.69287 30.337 9.47391 30.337Z" fill="black"/>
<path d="M25.999 41.5235C25.78 41.5235 25.5573 41.4783 25.3446 41.3827C25.1977 41.3168 25.0487 41.2522 24.9017 41.1908C24.0862 40.8505 23.701 39.9136 24.0414 39.098C24.3816 38.2827 25.3186 37.8974 26.1341 38.2377C26.3072 38.31 26.4824 38.3859 26.6551 38.4633C27.4613 38.8252 27.8214 39.772 27.4596 40.5784C27.1931 41.1717 26.6098 41.5235 25.999 41.5235Z" fill="black"/>
<path d="M9.47391 41.5237C8.86287 41.5237 8.27959 41.1719 8.01319 40.5784C7.65143 39.7722 8.01167 38.8253 8.81791 38.4636C12.6586 36.74 16.8969 36.1698 21.0745 36.8148C21.9478 36.9496 22.5464 37.7668 22.4116 38.6401C22.2768 39.5134 21.4598 40.112 20.5862 39.9773C17.0205 39.4268 13.4041 39.9129 10.1281 41.3831C9.91543 41.4784 9.69287 41.5237 9.47391 41.5237Z" fill="black"/>
<path d="M38.0007 19.1499C37.3896 19.1499 36.8061 18.7979 36.5399 18.2042C36.1783 17.398 36.5388 16.4512 37.345 16.0896C37.517 16.0124 37.6925 15.9365 37.8665 15.8639C38.6819 15.5235 39.6189 15.9087 39.9593 16.7241C40.2997 17.5396 39.9145 18.4766 39.0991 18.817C38.9507 18.8788 38.8011 18.9436 38.6544 19.0094C38.4419 19.1047 38.2194 19.1499 38.0007 19.1499Z" fill="black"/>
<path d="M54.5257 19.1502C54.3066 19.1502 54.0842 19.1051 53.8714 19.0096C50.5963 17.5399 46.981 17.0536 43.4163 17.6033C42.543 17.738 41.7258 17.1392 41.5912 16.2658C41.4565 15.3925 42.0553 14.5753 42.9286 14.4407C47.105 13.7966 51.342 14.367 55.1817 16.0901C55.9879 16.4518 56.3481 17.3986 55.9864 18.2049C55.7201 18.7984 55.1366 19.1502 54.5257 19.1502Z" fill="black"/>
<path d="M38.0003 30.3368C37.3892 30.3368 36.8059 29.9851 36.5395 29.3915C36.1778 28.5853 36.5381 27.6384 37.3444 27.2767C41.1847 25.5534 45.4222 24.9832 49.5993 25.6278C50.4727 25.7626 51.0713 26.5798 50.9366 27.4531C50.8017 28.3264 49.9846 28.925 49.1113 28.7904C45.5462 28.2402 41.9301 28.7264 38.6545 30.1962C38.4417 30.2917 38.2192 30.3368 38.0003 30.3368Z" fill="black"/>
<path d="M54.5258 30.337C54.3067 30.337 54.0843 30.2919 53.8717 30.1965C53.7235 30.1301 53.5735 30.0651 53.4258 30.0034C52.6102 29.6632 52.225 28.7262 52.5651 27.9107C52.9055 27.0952 53.8425 26.7099 54.6579 27.0502C54.8317 27.1227 55.0079 27.199 55.1817 27.277C55.9878 27.6386 56.3481 28.5855 55.9864 29.3918C55.7202 29.9852 55.1367 30.337 54.5258 30.337Z" fill="black"/>
<path d="M38.0003 41.5235C37.3893 41.5235 36.806 41.1718 36.5396 40.5784C36.1778 39.7721 36.5379 38.8252 37.344 38.4633C37.5167 38.3858 37.692 38.31 37.8651 38.2377C38.6806 37.8974 39.6176 38.2826 39.9578 39.098C40.2983 39.9136 39.9129 40.8505 39.0975 41.1908C38.9504 41.2523 38.8014 41.3168 38.6545 41.3827C38.4418 41.4782 38.2191 41.5235 38.0003 41.5235Z" fill="black"/>
<path d="M54.5255 41.5238C54.3065 41.5238 54.0841 41.4786 53.8713 41.3832C50.5953 39.913 46.9789 39.427 43.4131 39.9774C42.5397 40.1122 41.7225 39.5135 41.5878 38.6402C41.4529 37.767 42.0516 36.9496 42.9249 36.815C47.1025 36.1699 51.3406 36.7401 55.1814 38.4637C55.9877 38.8254 56.3478 39.7722 55.9861 40.5786C55.7199 41.1719 55.1365 41.5238 54.5255 41.5238Z" fill="black"/>
</svg>
