<svg width="64" height="64" viewBox="0 0 64 64" fill="none" xmlns="http://www.w3.org/2000/svg">
<path d="M0 6.40002V48H18.45C17.9766 46.9618 17.5476 45.9021 17.2063 44.8H3.2V38.4H16.0813C16.0498 37.8671 16 37.3405 16 36.8C16 36.2595 16.0498 35.7329 16.0813 35.2H3.2V28.8H17.2063C17.5476 27.6979 17.9766 26.6382 18.45 25.6H3.2V19.2H22.525C23.5074 18.0487 24.5794 16.9747 25.7375 16H3.2V9.60002L41.6 9.68127V6.40002H0ZM43.2 16C31.7125 16 22.4 25.3125 22.4 36.8C22.4 48.2875 31.7125 57.6 43.2 57.6C54.6875 57.6 64 48.2875 64 36.8C64 25.3125 54.6875 16 43.2 16ZM43.2 19.2C52.9202 19.2 60.8 27.0798 60.8 36.8C60.8 46.5202 52.9202 54.4 43.2 54.4C33.4798 54.4 25.6 46.5202 25.6 36.8C25.6 27.0798 33.4798 19.2 43.2 19.2ZM41.6 25.6V28.8C38.968 28.8 36.8 30.968 36.8 33.6C36.8 36.232 38.968 38.4 41.6 38.4H44.8C45.7026 38.4 46.4 39.0974 46.4 40C46.4 40.9026 45.7026 41.6 44.8 41.6H41.6H36.8V44.8H41.6V48H44.8V44.8C47.432 44.8 49.6 42.632 49.6 40C49.6 37.368 47.432 35.2 44.8 35.2H41.6C40.6974 35.2 40 34.5026 40 33.6C40 32.6974 40.6974 32 41.6 32H44.8H49.6V28.8H44.8V25.6H41.6Z" fill="#222222"/>
</svg>
