<svg width="49" height="49" viewBox="0 0 49 49" fill="none" xmlns="http://www.w3.org/2000/svg">
<path d="M20.3332 4.66671H10.1998C7.2129 4.66671 5.71941 4.66671 4.57856 5.24802C3.57501 5.75935 2.75912 6.57525 2.24781 7.57877C1.6665 8.71965 1.6665 10.2131 1.6665 13.2V38.8C1.6665 41.787 1.6665 43.2806 2.24781 44.4214C2.75912 45.4248 3.57501 46.2408 4.57856 46.752C5.71941 47.3334 7.2129 47.3334 10.1998 47.3334H35.7998C38.7868 47.3334 40.2804 47.3334 41.4212 46.752C42.4246 46.2408 43.2406 45.4248 43.7518 44.4214C44.3332 43.2806 44.3332 41.787 44.3332 38.8V27.3334M32.3332 8.66671L39.8756 16.2092M19.7004 21.2995L37.4292 3.57077C39.5118 1.48797 42.8889 1.48797 44.9716 3.57077C47.0545 5.65357 47.0545 9.03045 44.9716 11.1132L26.6729 29.4118C24.642 31.443 23.6265 32.4584 22.4697 33.2659C21.443 33.983 20.3356 34.5766 19.1705 35.0352C17.8577 35.552 16.4499 35.836 13.6343 36.4043L12.3332 36.6667L12.4597 35.7808C12.9075 32.6467 13.1314 31.0795 13.6406 29.6163C14.0925 28.3179 14.7098 27.0835 15.4773 25.943C16.3423 24.6576 17.4617 23.5382 19.7004 21.2995Z" stroke="black" stroke-width="3" stroke-linecap="round" stroke-linejoin="round"/>
</svg>
